<svg width="87" height="87" viewBox="0 0 87 87" fill="none" xmlns="http://www.w3.org/2000/svg">
<path d="M22.0108 18.8646C21.9468 17.4328 22.1698 16.0027 22.6667 14.6583C23.1636 13.314 23.9242 12.0825 24.904 11.0365C25.8837 9.99039 27.0627 9.1508 28.3717 8.56705C29.6806 7.98331 31.0931 7.66721 32.526 7.63734C33.959 7.60748 35.3834 7.86445 36.7155 8.39314C38.0477 8.92183 39.2607 9.71157 40.2831 10.7159C41.3056 11.7202 42.1169 12.9189 42.6694 14.2414C43.2218 15.5639 43.5042 16.9835 43.5 18.4167V65M22.0108 18.8646C19.9045 19.4062 17.9491 20.4199 16.2926 21.8291C14.6361 23.2383 13.322 25.006 12.4499 26.9982C11.5777 28.9905 11.1703 31.1551 11.2586 33.3281C11.3468 35.5011 11.9284 37.6255 12.9593 39.5404M22.0108 18.8646C22.0816 20.598 22.5709 22.2885 23.4369 23.7917M12.9593 39.5404C11.1467 41.0129 9.72146 42.906 8.80739 45.055C7.89333 47.2039 7.51818 49.5436 7.71457 51.8706C7.91095 54.1976 8.67294 56.4414 9.93423 58.4068C11.1955 60.3721 12.9179 61.9995 14.9516 63.1474M12.9593 39.5404C13.6148 39.0065 14.3163 38.5353 15.0555 38.125M14.9516 63.1474C14.7005 65.0905 14.8503 67.0643 15.3919 68.9471C15.9336 70.83 16.8554 72.5818 18.1006 74.0944C19.3457 75.607 20.8878 76.8482 22.6315 77.7415C24.3751 78.6348 26.2834 79.1611 28.2385 79.288C30.1936 79.4148 32.1539 79.1396 33.9984 78.4791C35.8429 77.8187 37.5324 76.7871 38.9627 75.4482C40.3929 74.1092 41.5334 72.4912 42.3138 70.6942C43.0942 68.8971 43.4979 66.9592 43.5 65M14.9516 63.1474C17.1026 64.3607 19.5305 65.0012 22 65M43.5 65H65C66.9007 65 68.7236 65.7551 70.0676 67.0991C71.4116 68.4431 72.1667 70.266 72.1667 72.1667V75.75M32.75 47.0834C35.7584 46.025 38.3855 44.0984 40.2989 41.5471C42.2124 38.9958 43.3264 35.9344 43.5 32.75M43.5 47.0834H57.8333M43.5 29.1667H72.1667M57.8333 29.1667V18.4167C57.8333 16.516 58.5884 14.6931 59.9324 13.3491C61.2764 12.0051 63.0993 11.25 65 11.25M59.625 47.0834C59.625 48.0729 58.8229 48.875 57.8333 48.875C56.8438 48.875 56.0417 48.0729 56.0417 47.0834C56.0417 46.0938 56.8438 45.2917 57.8333 45.2917C58.8229 45.2917 59.625 46.0938 59.625 47.0834ZM66.7917 11.25C66.7917 12.2395 65.9895 13.0417 65 13.0417C64.0105 13.0417 63.2083 12.2395 63.2083 11.25C63.2083 10.2605 64.0105 9.45835 65 9.45835C65.9895 9.45835 66.7917 10.2605 66.7917 11.25ZM73.9583 75.75C73.9583 76.7395 73.1562 77.5417 72.1667 77.5417C71.1772 77.5417 70.375 76.7395 70.375 75.75C70.375 74.7605 71.1772 73.9584 72.1667 73.9584C73.1562 73.9584 73.9583 74.7605 73.9583 75.75ZM73.9583 29.1667C73.9583 30.1562 73.1562 30.9584 72.1667 30.9584C71.1772 30.9584 70.375 30.1562 70.375 29.1667C70.375 28.1772 71.1772 27.375 72.1667 27.375C73.1562 27.375 73.9583 28.1772 73.9583 29.1667Z" stroke="white" stroke-width="2" stroke-linecap="round" stroke-linejoin="round"/>
</svg>
