<svg width="80" height="80" viewBox="0 0 80 80" fill="none" xmlns="http://www.w3.org/2000/svg">
<path d="M55.8334 40H67.94C68.508 40.0003 69.0665 40.1458 69.5625 40.4225C70.0584 40.6993 70.4755 41.0982 70.774 41.5813C71.0725 42.0645 71.2426 42.616 71.2682 43.1834C71.2938 43.7508 71.1739 44.3153 70.92 44.8234L64.14 58.3867C63.8829 58.9006 63.4974 59.3394 63.0207 59.6604C62.544 59.9814 61.9925 60.1737 61.4196 60.2186C60.8466 60.2636 60.2719 60.1596 59.751 59.9169C59.2301 59.6742 58.7808 59.3009 58.4467 58.8334L51.3667 48.9334M6.66669 63.3334H19.2C20.4425 63.342 21.6626 63.0033 22.7228 62.3554C23.7829 61.7075 24.6409 60.7763 25.2 59.6667L30 50M6.66669 70V56.6667M23.3334 30H23.3667M57.02 30.1767C57.8101 30.5722 58.4108 31.2651 58.6902 32.1033C58.9696 32.9415 58.9048 33.8563 58.51 34.6467L48.1567 55.35C47.9609 55.7416 47.6898 56.0908 47.359 56.3777C47.0282 56.6645 46.6441 56.8834 46.2287 57.0217C45.8133 57.1601 45.3747 57.2153 44.9379 57.1841C44.5012 57.1529 44.0749 57.036 43.6834 56.84L12.0334 41C9.73446 39.8421 7.98787 37.8206 7.17575 35.378C6.36364 32.9355 6.55215 30.2706 7.70002 27.9667L12.3 18.6667C12.8734 17.5241 13.6662 16.5056 14.6331 15.6695C15.6001 14.8333 16.7224 14.1958 17.9358 13.7934C19.1491 13.391 20.4299 13.2316 21.7049 13.3242C22.9799 13.4169 24.2242 13.7598 25.3667 14.3334L57.02 30.1767Z" stroke="white" stroke-width="2" stroke-linecap="round" stroke-linejoin="round"/>
</svg>
