<svg width="87" height="87" viewBox="0 0 87 87" fill="none" xmlns="http://www.w3.org/2000/svg">
<path d="M56.4 10.175C48.7359 7.19753 40.281 6.94629 32.4537 9.46341C24.6264 11.9805 17.9027 17.1129 13.4108 23.9995C8.91878 30.8861 6.93173 39.108 7.78293 47.2859C8.63413 55.4639 12.2718 63.1003 18.0857 68.9142C23.8996 74.7282 31.5361 78.3658 39.714 79.217C47.892 80.0682 56.1139 78.0812 63.0005 73.5892C69.8871 69.0972 75.0194 62.3736 77.5366 54.5463C80.0537 46.7189 79.8024 38.2641 76.825 30.6M48.5166 38.4833L68.5833 18.4167M50.6667 43.5C50.6667 47.458 47.458 50.6667 43.5 50.6667C39.5419 50.6667 36.3333 47.458 36.3333 43.5C36.3333 39.542 39.5419 36.3333 43.5 36.3333C47.458 36.3333 50.6667 39.542 50.6667 43.5Z" stroke="white" stroke-width="2" stroke-linecap="round" stroke-linejoin="round"/>
</svg>
