<svg width="87" height="87" viewBox="0 0 87 87" fill="none" xmlns="http://www.w3.org/2000/svg">
<path d="M18.4166 32.75C24.3537 32.75 29.1666 27.9371 29.1666 22C29.1666 16.0629 24.3537 11.25 18.4166 11.25C12.4796 11.25 7.66663 16.0629 7.66663 22C7.66663 27.9371 12.4796 32.75 18.4166 32.75ZM18.4166 32.75V54.25M18.4166 54.25C12.4796 54.25 7.66663 59.0629 7.66663 65C7.66663 70.9371 12.4796 75.75 18.4166 75.75C24.3537 75.75 29.1666 70.9371 29.1666 65C29.1666 59.0629 24.3537 54.25 18.4166 54.25ZM43.5 11.25V75.75M68.5833 32.75C74.5204 32.75 79.3333 27.9371 79.3333 22C79.3333 16.0629 74.5204 11.25 68.5833 11.25C62.6462 11.25 57.8333 16.0629 57.8333 22C57.8333 27.9371 62.6462 32.75 68.5833 32.75ZM68.5833 32.75C68.5792 37.2825 67.6197 41.7633 65.7674 45.9C63.9151 50.0368 61.2116 53.7367 57.8333 56.7583" stroke="white" stroke-width="2" stroke-linecap="round" stroke-linejoin="round"/>
</svg>
