<svg width="80" height="80" viewBox="0 0 80 80" fill="none" xmlns="http://www.w3.org/2000/svg">
<path d="M40 26.6667L60 16.6667L40 6.66669V40M26.6667 39.9667L8.33332 50.4334C7.82033 50.7241 7.39363 51.1457 7.09677 51.6551C6.7999 52.1646 6.64349 52.7437 6.64349 53.3334C6.64349 53.923 6.7999 54.5021 7.09677 55.0116C7.39363 55.521 7.82033 55.9426 8.33332 56.2334L36.6667 72.4334C37.6801 73.0185 38.8297 73.3265 40 73.3265C41.1702 73.3265 42.3199 73.0185 43.3333 72.4334L71.6667 56.2334C72.1796 55.9426 72.6063 55.521 72.9032 55.0116C73.2001 54.5021 73.3565 53.923 73.3565 53.3334C73.3565 52.7437 73.2001 52.1646 72.9032 51.6551C72.6063 51.1457 72.1796 50.7241 71.6667 50.4334L53.3333 40M21.6333 42.8334L58.3667 63.8334M58.3667 42.8334L21.6667 63.8334" stroke="white" stroke-width="2" stroke-linecap="round" stroke-linejoin="round"/>
</svg>
