<svg width="87" height="87" viewBox="0 0 87 87" fill="none" xmlns="http://www.w3.org/2000/svg">
<path d="M50.6667 15.1916L43.5 22M18.775 29.1666L8.38333 26.3M22 43.5L15.1917 50.6666M26.3 8.3833L29.1667 18.775M32.8826 35.2225C32.7436 34.8951 32.7056 34.5338 32.7735 34.1847C32.8413 33.8356 33.0119 33.5148 33.2634 33.2633C33.5148 33.0119 33.8357 32.8413 34.1847 32.7735C34.5338 32.7056 34.8952 32.7436 35.2225 32.8826L74.6392 49.0075C74.99 49.1515 75.2861 49.403 75.4849 49.7259C75.6837 50.0488 75.7749 50.4264 75.7454 50.8044C75.7159 51.1825 75.5673 51.5414 75.3208 51.8296C75.0744 52.1178 74.7429 52.3203 74.374 52.4081L58.7901 56.1384C58.1468 56.2921 57.5585 56.6208 57.0905 57.0882C56.6225 57.5555 56.293 58.1434 56.1384 58.7865L52.4118 74.374C52.3249 74.7441 52.1226 75.077 51.834 75.3245C51.5455 75.5721 51.1856 75.7214 50.8066 75.7509C50.4276 75.7805 50.049 75.6887 49.7256 75.4888C49.4022 75.2889 49.1507 74.9914 49.0076 74.6391L32.8826 35.2225Z" stroke="#FFF3F3" stroke-width="2" stroke-linecap="round" stroke-linejoin="round"/>
</svg>
