<svg width="80" height="80" viewBox="0 0 80 80" fill="none" xmlns="http://www.w3.org/2000/svg">
<path d="M30 63.3334C30 68.8562 25.5228 73.3334 20 73.3334C14.4772 73.3334 10 68.8562 10 63.3334C10 57.8105 14.4772 53.3334 20 53.3334C25.5228 53.3334 30 57.8105 30 63.3334ZM30 63.3334H58.3333C61.4275 63.3334 64.395 62.1042 66.5829 59.9163C68.7708 57.7283 70 54.7609 70 51.6667C70 48.5725 68.7708 45.605 66.5829 43.4171C64.395 41.2292 61.4275 40 58.3333 40H21.6667C18.5725 40 15.605 38.7709 13.4171 36.5829C11.2292 34.395 10 31.4275 10 28.3334C10 25.2392 11.2292 22.2717 13.4171 20.0838C15.605 17.8959 18.5725 16.6667 21.6667 16.6667H50M50 16.6667C50 22.1895 54.4772 26.6667 60 26.6667C65.5228 26.6667 70 22.1895 70 16.6667C70 11.1438 65.5228 6.66669 60 6.66669C54.4772 6.66669 50 11.1438 50 16.6667Z" stroke="white" stroke-width="2" stroke-linecap="round" stroke-linejoin="round"/>
</svg>
