<svg xmlns="http://www.w3.org/2000/svg" xmlns:xlink="http://www.w3.org/1999/xlink" width="500" zoomAndPan="magnify" viewBox="0 0 375 374.999991" height="500" preserveAspectRatio="xMidYMid meet" version="1.2"><defs><clipPath id="e613e64858"><path d="M 139 74.953125 L 304.972656 74.953125 L 304.972656 299.953125 L 139 299.953125 Z M 139 74.953125 "/></clipPath><clipPath id="56499a351d"><path d="M 70.226562 74.953125 L 177 74.953125 L 177 132 L 70.226562 132 Z M 70.226562 74.953125 "/></clipPath><clipPath id="72720b3066"><path d="M 139 103 L 277 103 L 277 299.953125 L 139 299.953125 Z M 139 103 "/></clipPath><clipPath id="5284b49eca"><path d="M 70.226562 74.953125 L 177 74.953125 L 177 132 L 70.226562 132 Z M 70.226562 74.953125 "/></clipPath><clipPath id="41b8e3c2d6"><path d="M 115.847656 75 L 228.347656 75 L 228.347656 131.289062 L 115.847656 131.289062 Z M 115.847656 75 "/></clipPath></defs><g id="8745e6ebfb"><g clip-rule="nonzero" clip-path="url(#e613e64858)"><path style=" stroke:none;fill-rule:evenodd;fill:#5ce1e6;fill-opacity:1;" d="M 244.058594 233.214844 L 288.578125 299.953125 L 220.273438 299.953125 L 177.402344 235.667969 L 139.917969 179.417969 C 139.917969 179.417969 224.257812 179.417969 224.292969 179.417969 C 237.40625 179.417969 248.398438 168.410156 248.398438 155.308594 C 248.398438 142.011719 237.589844 131.203125 224.292969 131.203125 L 204.003906 131.203125 L 166.515625 74.953125 L 224.292969 74.953125 C 268.6875 74.953125 304.648438 110.914062 304.648438 155.308594 C 304.648438 177.488281 295.648438 197.578125 281.101562 212.121094 C 271.105469 222.117188 257.746094 229.722656 244.058594 233.214844 "/></g><g clip-rule="nonzero" clip-path="url(#56499a351d)"><path style=" stroke:none;fill-rule:evenodd;fill:#5ce1e6;fill-opacity:1;" d="M 176.066406 131.203125 L 107.757812 131.203125 L 70.257812 74.953125 L 138.570312 74.953125 Z M 176.066406 131.203125 "/></g><g clip-rule="nonzero" clip-path="url(#72720b3066)"><path style=" stroke:none;fill-rule:evenodd;fill:#5ce1e6;fill-opacity:1;" d="M 223.378906 209.328125 L 197.378906 209.328125 L 214.882812 235.636719 L 257.753906 299.953125 L 220.253906 299.953125 L 193.257812 259.390625 L 139.941406 179.390625 C 139.941406 179.390625 224.257812 179.390625 224.316406 179.390625 C 237.378906 179.390625 248.378906 168.390625 248.378906 155.328125 C 248.378906 142.015625 237.566406 131.203125 224.316406 131.203125 L 204.015625 131.203125 L 185.265625 103.078125 L 223.378906 103.078125 C 252.753906 103.078125 276.503906 126.890625 276.503906 156.203125 C 276.503906 185.515625 252.753906 209.328125 223.378906 209.328125 "/></g><g clip-rule="nonzero" clip-path="url(#5284b49eca)"><path style=" stroke:none;fill-rule:evenodd;fill:#5ce1e6;fill-opacity:1;" d="M 70.257812 74.953125 L 107.757812 131.203125 L 176.066406 131.203125 L 157.316406 103.078125 L 128.859375 103.078125 C 106.976562 103.078125 86.179688 93.519531 71.933594 76.90625 Z M 70.257812 74.953125 "/></g><g clip-rule="nonzero" clip-path="url(#41b8e3c2d6)"><path style=" stroke:none;fill-rule:nonzero;fill:#5ce1e6;fill-opacity:1;" d="M 115.847656 75 L 228.425781 75 L 228.425781 131.289062 L 115.847656 131.289062 Z M 115.847656 75 "/></g></g></svg>