<?xml version="1.0" encoding="UTF-8"?>
<svg version="1.1" xmlns="http://www.w3.org/2000/svg" width="500" height="500">
<path d="M0 0 C28.42536888 -0.04679007 56.85073195 -0.08202315 85.27613163 -0.10362434 C98.4755234 -0.11392223 111.6748912 -0.12795406 124.87426758 -0.15087891 C136.38331937 -0.17085839 147.89235379 -0.18372725 159.40142244 -0.18817699 C165.49128555 -0.19077665 171.58109898 -0.19685589 177.67094612 -0.21146011 C183.41233818 -0.2251161 189.15366046 -0.22920653 194.89506721 -0.22621536 C196.99315776 -0.22676196 199.09125083 -0.23069132 201.18932724 -0.23841095 C226.88032996 -0.32823722 254.02699496 2.39280417 275 19 C275 19.66 275 20.32 275 21 C275.7425 21.2475 276.485 21.495 277.25 21.75 C280.23023087 23.10465039 281.89919252 24.5101541 284 27 C284 27.66 284 28.32 284 29 C284.61875 29.226875 285.2375 29.45375 285.875 29.6875 C288.61410209 31.37929835 289.05024472 32.99244161 290 36 C290.66 36 291.32 36 292 36 C293.54105675 38.24346375 294.94317103 40.46652347 296.3125 42.8125 C296.71621826 43.49957031 297.11993652 44.18664062 297.53588867 44.89453125 C311.97578717 69.79631479 315.38142207 97.94687054 308.2265625 125.78515625 C305.02386111 137.23573103 299.86888526 147.70340545 294 158 C293.34 158 292.68 158 292 158 C291.34 159.98 290.68 161.96 290 164 C289.34 164 288.68 164 288 164 C287.34 165.65 286.68 167.3 286 169 C285.34 169 284.68 169 284 169 C283.72800781 169.58910156 283.45601563 170.17820313 283.17578125 170.78515625 C276.21789031 183.89188104 261.30040262 195.06716196 249.60644531 203.79931641 C248.16292719 204.87822555 246.73289382 205.97512084 245.3046875 207.07421875 C236.95565695 213.36790692 227.98579974 218.67896413 219 224 C218.39961914 224.3599707 217.79923828 224.71994141 217.18066406 225.09082031 C215.67069948 225.99176884 214.14837426 226.87191564 212.625 227.75 C211.81289063 228.21921875 211.00078125 228.6884375 210.1640625 229.171875 C207.54386771 230.17454882 206.60937548 229.91939299 204 229 C201.94385126 227.02505319 200.06572942 225.06884094 198.1875 222.9375 C197.65125 222.34259766 197.115 221.74769531 196.5625 221.13476562 C193.29766311 217.50233814 190.079792 213.82842754 186.88671875 210.1328125 C184.41114677 207.33433983 181.85895525 204.6087184 179.3125 201.875 C174.39816813 196.5939618 169.65940602 191.1840889 165.0090332 185.66943359 C162.96689995 183.25494656 160.92558085 180.92768939 158.65625 178.72265625 C157 177 157 177 157 175 C156.34 175 155.68 175 155 175 C153.5546875 173.56640625 153.5546875 173.56640625 151.875 171.5625 C148.50621429 167.58378677 145.0296018 163.7229439 141.50390625 159.8828125 C140 158 140 158 140 156 C139.34 156 138.68 156 138 156 C138 155.34 138 154.68 138 154 C137.01 153.67 136.02 153.34 135 153 C133.52201683 151.34442971 132.11417647 149.62553414 130.75 147.875 C127.45690674 143.73033761 124.09411492 139.93762585 120.21484375 136.33984375 C119 135 119 135 119 133 C118.34 133 117.68 133 117 133 C115.54597658 131.3623728 114.16151322 129.66265804 112.8125 127.9375 C109.49720572 123.77460622 106.11466034 119.95668045 102.21484375 116.33984375 C101 115 101 115 101 113 C100.34 113 99.68 113 99 113 C97.4921875 111.5390625 97.4921875 111.5390625 95.875 109.625 C95.33617187 108.99851562 94.79734375 108.37203125 94.2421875 107.7265625 C93 106 93 106 93 104 C92.34 104 91.68 104 91 104 C89.2734375 102.3203125 89.2734375 102.3203125 87.375 100.125 C86.74335938 99.40570313 86.11171875 98.68640625 85.4609375 97.9453125 C84 96 84 96 84 94 C83.34 94 82.68 94 82 94 C82 93.34 82 92.68 82 92 C81.34 92 80.68 92 80 92 C78.4765625 90.26953125 78.4765625 90.26953125 76.625 87.8125 C72.64846208 82.68408671 68.34932242 77.97034431 63.86181641 73.29223633 C60 69.20993989 60 69.20993989 60 67 C59.34 67 58.68 67 58 67 C58 66.34 58 65.68 58 65 C57.34 65 56.68 65 56 65 C56 64.34 56 63.68 56 63 C55.34 63 54.68 63 54 63 C52.52483679 61.34191655 51.119287 59.62153953 49.75 57.875 C47.10704701 54.55743219 44.5028587 51.37117264 41.4375 48.4375 C40.633125 47.633125 39.82875 46.82875 39 46 C39 45.34 39 44.68 39 44 C38.34 44 37.68 44 37 44 C37 43.34 37 42.68 37 42 C36.34 42 35.68 42 35 42 C33.54597658 40.3623728 32.16151322 38.66265804 30.8125 36.9375 C27.49720572 32.77460622 24.11466034 28.95668045 20.21484375 25.33984375 C19 24 19 24 19 22 C18.34 22 17.68 22 17 22 C17 21.34 17 20.68 17 20 C16.34 20 15.68 20 15 20 C13.58984375 18.6015625 13.58984375 18.6015625 11.9375 16.625 C9.02935433 13.20148675 6.07339727 9.83383262 3.0625 6.5 C2.29035156 5.6440625 1.51820312 4.788125 0.72265625 3.90625 C0.15417969 3.2771875 -0.41429688 2.648125 -1 2 C-0.67 1.34 -0.34 0.68 0 0 Z " fill="#0457D3" transform="translate(106,40)"/>
<path d="M0 0 C0.99 0.33 1.98 0.66 3 1 C3 1.66 3 2.32 3 3 C3.66 3 4.32 3 5 3 C6.4453125 4.43359375 6.4453125 4.43359375 8.125 6.4375 C11.49378571 10.41621323 14.9703982 14.2770561 18.49609375 18.1171875 C20 20 20 20 20 22 C20.66 22 21.32 22 22 22 C23.44750977 23.45556641 23.44750977 23.45556641 25.12890625 25.4765625 C27.66961468 28.46586373 30.25551425 31.37322583 32.96484375 34.2109375 C33.61904297 34.89800781 34.27324219 35.58507812 34.94726562 36.29296875 C36.29885345 37.70689674 37.6531172 39.11827064 39.00976562 40.52734375 C39.65494141 41.20667969 40.30011719 41.88601562 40.96484375 42.5859375 C41.5487085 43.1948584 42.13257324 43.8037793 42.73413086 44.43115234 C44 46 44 46 44 48 C44.66 48 45.32 48 46 48 C46 48.66 46 49.32 46 50 C46.66 50 47.32 50 48 50 C49.33984375 51.328125 49.33984375 51.328125 50.9375 53.25 C53.20679462 55.93276779 55.50670994 58.56655115 57.90625 61.1328125 C58.40648682 61.66874023 58.90672363 62.20466797 59.42211914 62.75683594 C60.4256602 63.82844383 61.4326231 64.8968583 62.44311523 65.96191406 C66 69.77930131 66 69.77930131 66 72 C66.66 72 67.32 72 68 72 C68 72.66 68 73.32 68 74 C68.66 74 69.32 74 70 74 C70 74.66 70 75.32 70 76 C70.66 76 71.32 76 72 76 C73.36933879 77.55593001 74.66944657 79.17297341 75.9375 80.8125 C80.13432184 86.07035409 84.61080407 90.71550091 89.421875 95.42578125 C92.26418013 98.26377985 94.89558167 101.22329844 97.49609375 104.28125 C98.91132592 105.8986582 100.38657173 107.38887375 101.9375 108.875 C104 111 104 111 104 113 C104.66 113 105.32 113 106 113 C109 116.46153846 109 116.46153846 109 119 C109.54140625 119.20625 110.0828125 119.4125 110.640625 119.625 C113.92118012 121.53684669 116.23844174 124.20498504 118.75 127 C119.25660156 127.5465625 119.76320313 128.093125 120.28515625 128.65625 C124 132.74157682 124 132.74157682 124 135 C124.66 135 125.32 135 126 135 C126 135.66 126 136.32 126 137 C126.66 137 127.32 137 128 137 C128 137.66 128 138.32 128 139 C128.66 139 129.32 139 130 139 C131.47516321 140.65808345 132.880713 142.37846047 134.25 144.125 C136.89295299 147.44256781 139.4971413 150.62882736 142.5625 153.5625 C143.366875 154.366875 144.17125 155.17125 145 156 C145 156.66 145 157.32 145 158 C145.66 158 146.32 158 147 158 C148.41015625 159.3984375 148.41015625 159.3984375 150.0625 161.375 C153.68804524 165.65834459 157.46199548 169.78372133 161.27734375 173.8984375 C163 176 163 176 163 178 C163.66 178 164.32 178 165 178 C165 178.66 165 179.32 165 180 C165.66 180 166.32 180 167 180 C167 180.66 167 181.32 167 182 C167.66 182 168.32 182 169 182 C169 182.66 169 183.32 169 184 C169.66 184 170.32 184 171 184 C171 184.66 171 185.32 171 186 C171.66 186 172.32 186 173 186 C174.4328718 187.61718311 175.79624749 189.29623372 177.125 191 C180.57560088 195.31878091 184.14697214 199.26409224 188.10546875 203.11328125 C190.58164921 205.57925065 192.85166504 208.19152588 195.125 210.84375 C198.0994084 214.26431966 201.19543679 217.57471146 204.27734375 220.8984375 C206 223 206 223 206 225 C206.66 225 207.32 225 208 225 C208 225.66 208 226.32 208 227 C208.66 227 209.32 227 210 227 C210 227.66 210 228.32 210 229 C210.66 229 211.32 229 212 229 C213.49877503 230.65483608 214.92488473 232.37590512 216.3125 234.125 C217.51132812 235.62546875 217.51132812 235.62546875 218.734375 237.15625 C219.48203125 238.0946875 220.2296875 239.033125 221 240 C222.01632352 241.21212897 223.03598007 242.42149388 224.0625 243.625 C226 246 226 246 226 247 C218.81157362 247.35056576 211.62503979 247.61551353 204.429739 247.77718258 C201.08528824 247.85489615 197.75117284 247.96803082 194.40917969 248.1315918 C171.03883962 249.24592177 171.03883962 249.24592177 164.04003906 243.66455078 C160.40521241 240.12223942 157.57437498 236.36751973 155 232 C155 231.34 155 230.68 155 230 C154.34 230 153.68 230 153 230 C151.2734375 228.3203125 151.2734375 228.3203125 149.375 226.125 C148.74335938 225.40570313 148.11171875 224.68640625 147.4609375 223.9453125 C146 222 146 222 146 220 C145.34 220 144.68 220 144 220 C144 219.34 144 218.68 144 218 C143.43796875 217.773125 142.8759375 217.54625 142.296875 217.3125 C139.35373139 215.63070365 137.49955268 213.5289089 135.25 211 C134.05117188 209.6696875 134.05117188 209.6696875 132.828125 208.3125 C131 206 131 206 131 204 C130.34 204 129.68 204 129 204 C129 203.34 129 202.68 129 202 C128.34 202 127.68 202 127 202 C127 201.34 127 200.68 127 200 C126.34 200 125.68 200 125 200 C123.52483679 198.34191655 122.119287 196.62153953 120.75 194.875 C118.10704701 191.55743219 115.5028587 188.37117264 112.4375 185.4375 C111.633125 184.633125 110.82875 183.82875 110 183 C110 182.34 110 181.68 110 181 C109.34 181 108.68 181 108 181 C106.51953125 179.49609375 106.51953125 179.49609375 104.8125 177.4375 C102.44837895 174.65156482 100.05005091 171.99199422 97.4375 169.4375 C94.10702417 166.15223425 90.74004829 162.80394982 88 159 C88 158.34 88 157.68 88 157 C87.34 157 86.68 157 86 157 C86 156.34 86 155.68 86 155 C85.34 155 84.68 155 84 155 C84 154.34 84 153.68 84 153 C83.34 153 82.68 153 82 153 C80.58984375 151.63671875 80.58984375 151.63671875 78.9375 149.6875 C78.32390625 148.96820313 77.7103125 148.24890625 77.078125 147.5078125 C73.98649477 143.77693542 70.94292 140.00775016 67.91796875 136.22265625 C66.19416673 133.93666852 66.19416673 133.93666852 64 133 C64 132.34 64 131.68 64 131 C63.34 131 62.68 131 62 131 C60.34375 129.390625 60.34375 129.390625 58.5 127.25 C57.8915625 126.55390625 57.283125 125.8578125 56.65625 125.140625 C55.12023037 123.15539208 54.0276034 121.28127955 53 119 C52.34 119 51.68 119 51 119 C47 114.52941176 47 114.52941176 47 112 C46.34 112 45.68 112 45 112 C45 111.34 45 110.68 45 110 C44.34 110 43.68 110 43 110 C43 109.34 43 108.68 43 108 C42.34 108 41.68 108 41 108 C39.30859375 106.35546875 39.30859375 106.35546875 37.4375 104.1875 C36.81746094 103.47980469 36.19742188 102.77210938 35.55859375 102.04296875 C34 100 34 100 33 97 C32.34 97 31.68 97 31 97 C29.37890625 95.35546875 29.37890625 95.35546875 27.5625 93.1875 C25.02660668 90.17536735 25.02660668 90.17536735 22.27734375 87.36328125 C21 86 21 86 21 84 C20.34 84 19.68 84 19 84 C19 83.34 19 82.68 19 82 C18.34 82 17.68 82 17 82 C15.48259024 80.30096977 14.034872 78.53927277 12.625 76.75 C10.40770687 73.94686688 8.2694248 71.26298803 5.7109375 68.765625 C4 67 4 67 4 65 C3.43925781 64.77570313 2.87851563 64.55140625 2.30078125 64.3203125 C-0.68505828 62.60687657 -2.53354037 60.45183939 -4.8125 57.875 C-5.68390625 56.89273438 -6.5553125 55.91046875 -7.453125 54.8984375 C-8.29359375 53.94195312 -9.1340625 52.98546875 -10 52 C-10.71671875 51.20851563 -11.4334375 50.41703125 -12.171875 49.6015625 C-12.79578125 48.90804687 -13.4196875 48.21453125 -14.0625 47.5 C-14.88427734 46.58734375 -14.88427734 46.58734375 -15.72265625 45.65625 C-17 44 -17 44 -18 41 C-18.66 41 -19.32 41 -20 41 C-20 40.34 -20 39.68 -20 39 C-20.66 39 -21.32 39 -22 39 C-22 38.34 -22 37.68 -22 37 C-22.66 37 -23.32 37 -24 37 C-25.6875 35.25 -25.6875 35.25 -27 33 C-26.58907258 29.65779029 -25.24865798 27.75152062 -23.0625 25.25 C-22.53785156 24.63640625 -22.01320312 24.0228125 -21.47265625 23.390625 C-20 22 -20 22 -18 22 C-17.690625 21.38125 -17.38125 20.7625 -17.0625 20.125 C-16.375 18.75 -15.6875 17.375 -15 16 C-14.34 16 -13.68 16 -13 16 C-13 15.34 -13 14.68 -13 14 C-12.34 14 -11.68 14 -11 14 C-10.7525 13.443125 -10.505 12.88625 -10.25 12.3125 C-8.77075182 9.57589087 -7.06532561 7.32349131 -5 5 C-4.34 5 -3.68 5 -3 5 C-2.690625 4.360625 -2.38125 3.72125 -2.0625 3.0625 C-1 1 -1 1 0 0 Z " fill="#0135B5" transform="translate(184,213)"/>
<path d="M0 0 C3.8720392 0.12396359 5.7142128 1.43143896 8.33203125 4.08984375 C9.50357886 5.36199884 10.66345469 6.64498414 11.8125 7.9375 C12.40998047 8.58396484 13.00746094 9.23042969 13.62304688 9.89648438 C18 14.71363393 18 14.71363393 18 17 C18.66 17 19.32 17 20 17 C20 17.66 20 18.32 20 19 C20.66 19 21.32 19 22 19 C23.65625 20.609375 23.65625 20.609375 25.5 22.75 C26.1084375 23.44609375 26.716875 24.1421875 27.34375 24.859375 C28.87976963 26.84460792 29.9723966 28.71872045 31 31 C31.66 31 32.32 31 33 31 C34.65625 32.609375 34.65625 32.609375 36.5 34.75 C37.1084375 35.44609375 37.716875 36.1421875 38.34375 36.859375 C39.87976963 38.84460792 40.9723966 40.71872045 42 43 C42.66 43 43.32 43 44 43 C44 43.66 44 44.32 44 45 C44.66 45 45.32 45 46 45 C47.7265625 46.6796875 47.7265625 46.6796875 49.625 48.875 C50.25664062 49.59429687 50.88828125 50.31359375 51.5390625 51.0546875 C53 53 53 53 53 55 C53.66 55 54.32 55 55 55 C56.69140625 56.64453125 56.69140625 56.64453125 58.5625 58.8125 C59.18253906 59.52019531 59.80257812 60.22789062 60.44140625 60.95703125 C62 63 62 63 63 66 C63.66 66 64.32 66 65 66 C65 66.66 65 67.32 65 68 C65.66 68 66.32 68 67 68 C68.33984375 69.328125 68.33984375 69.328125 69.9375 71.25 C72.20679462 73.93276779 74.50670994 76.56655115 76.90625 79.1328125 C77.65660522 79.9367041 77.65660522 79.9367041 78.42211914 80.75683594 C79.4256602 81.82844383 80.4326231 82.8968583 81.44311523 83.96191406 C85 87.77930131 85 87.77930131 85 90 C85.66 90 86.32 90 87 90 C87 90.66 87 91.32 87 92 C87.66 92 88.32 92 89 92 C89 92.66 89 93.32 89 94 C89.66 94 90.32 94 91 94 C91 94.66 91 95.32 91 96 C91.66 96 92.32 96 93 96 C97 100.47058824 97 100.47058824 97 103 C35.62 103 -25.76 103 -89 103 C-87.00786053 98.01965133 -85.53992075 95.80541481 -82 92 C-81.34 92 -80.68 92 -80 92 C-80 91.34 -80 90.68 -80 90 C-79.34 90 -78.68 90 -78 90 C-77.7525 89.443125 -77.505 88.88625 -77.25 88.3125 C-75.77075182 85.57589087 -74.06532561 83.32349131 -72 81 C-71.34 81 -70.68 81 -70 81 C-69.77441406 80.45601563 -69.54882812 79.91203125 -69.31640625 79.3515625 C-67.58776213 76.26359881 -65.35449856 73.95545026 -62.9375 71.375 C-59.58466353 67.95790247 -59.58466353 67.95790247 -57 64 C-56.34 64 -55.68 64 -55 64 C-54.61521484 63.12214844 -54.61521484 63.12214844 -54.22265625 62.2265625 C-52.89437838 59.80765392 -51.43475199 58.26801128 -49.4375 56.375 C-46.85984611 53.95478041 -46.85984611 53.95478041 -45 51 C-44.34 51 -43.68 51 -43 51 C-42.7525 50.443125 -42.505 49.88625 -42.25 49.3125 C-40.77075182 46.57589087 -39.06532561 44.32349131 -37 42 C-36.34 42 -35.68 42 -35 42 C-35 41.34 -35 40.68 -35 40 C-34.34 40 -33.68 40 -33 40 C-32.78472656 39.47664063 -32.56945312 38.95328125 -32.34765625 38.4140625 C-30.46612555 35.04366837 -27.96627446 32.26704332 -25.4375 29.375 C-24.90535889 28.75979492 -24.37321777 28.14458984 -23.82495117 27.51074219 C-19.83178113 22.90917455 -15.76687179 18.37691993 -11.64453125 13.890625 C-9.94218348 12.09235265 -9.94218348 12.09235265 -9 10 C-8.34 10 -7.68 10 -7 10 C-7 9.34 -7 8.68 -7 8 C-6.34 8 -5.68 8 -5 8 C-4.731875 7.4225 -4.46375 6.845 -4.1875 6.25 C-2.98280141 3.9674132 -1.59201885 2.0262058 0 0 Z " fill="#0064E4" transform="translate(139,264)"/>
<path d="M0 0 C72.6 0 145.2 0 220 0 C220 0.33 220 0.66 220 1 C219.11380887 1.00634791 219.11380887 1.00634791 218.20971489 1.01282406 C203.67850615 1.11718487 189.14733474 1.22595536 174.61619377 1.33933926 C167.5883812 1.39407508 160.56056375 1.44744269 153.53271484 1.49731445 C147.39065523 1.54090416 141.24862407 1.58734041 135.10660946 1.63687855 C131.86955342 1.66289582 128.63250002 1.68727807 125.39541245 1.70907402 C110.38101799 1.81116964 95.39122527 2.11284554 80.38591385 2.65127373 C71.34735444 2.97132538 62.33309579 3.1358172 53.2890625 3.09765625 C51.91946466 3.09577468 50.54986611 3.09435913 49.18026733 3.09336853 C45.69870906 3.08967931 42.21719744 3.07997918 38.73565674 3.06866455 C35.13367341 3.05814431 31.53168199 3.05380778 27.9296875 3.04882812 C20.95310673 3.03833324 13.97655652 3.02143806 7 3 C7 4.32 7 5.64 7 7 C7.99 7.33 8.98 7.66 10 8 C10.99 9.485 10.99 9.485 12 11 C12.66 11 13.32 11 14 11 C14.3403125 12.1446875 14.3403125 12.1446875 14.6875 13.3125 C15.79508931 16.20253252 15.79508931 16.20253252 18.625 17.5625 C19.40875 18.036875 20.1925 18.51125 21 19 C21 20.32 21 21.64 21 23 C22.175625 23.0928125 22.175625 23.0928125 23.375 23.1875 C24.24125 23.455625 25.1075 23.72375 26 24 C26.66666667 25.66666667 27.33333333 27.33333333 28 29 C29.66800472 30.62119846 31.43912183 32.05194002 33.24609375 33.515625 C35.52598645 35.44515557 37.29922489 37.55088385 39 40 C39 40.66 39 41.32 39 42 C39.99 42.33 40.98 42.66 42 43 C43.33333333 45 44.66666667 47 46 49 C48.53442406 51.22816986 48.53442406 51.22816986 51 53 C52.95216435 54.95216435 53.84826645 56.53199953 55 59 C55.66 58.34 56.32 57.68 57 57 C59 60 59 60 59.3125 61.8125 C60.05683589 64.18084146 60.95261998 65.26640256 62.5625 67.125 C65 70 65 70 65 72 C66.1446875 72.0928125 66.1446875 72.0928125 67.3125 72.1875 C70 73 70 73 71.75 75.4375 C72.1625 76.283125 72.575 77.12875 73 78 C73.33 78.66 73.66 79.32 74 80 C75.485 80.495 75.485 80.495 77 81 C77.66666667 82.33333333 78.33333333 83.66666667 79 85 C80.485 85.495 80.485 85.495 82 86 C82 86.66 82 87.32 82 88 C82.66 88.33 83.32 88.66 84 89 C84.495 87.515 84.495 87.515 85 86 C86 90 86 90 86.1875 91.9375 C87.47533935 95.20663066 90.34069281 96.79334084 93 99 C93 99.99 93 100.98 93 102 C93.66 102 94.32 102 95 102 C95.103125 102.639375 95.20625 103.27875 95.3125 103.9375 C95.539375 104.618125 95.76625 105.29875 96 106 C97.485 106.495 97.485 106.495 99 107 C99 107.66 99 108.32 99 109 C99.66 109 100.32 109 101 109 C101.99 110.485 101.99 110.485 103 112 C103.763125 112.20625 104.52625 112.4125 105.3125 112.625 C109.02025897 114.52199296 109.89042917 117.1088395 111.73046875 120.7421875 C112.92124633 122.85993963 114.05574916 124.28466964 115.8125 125.9375 C116.534375 126.618125 117.25625 127.29875 118 128 C118 128.66 118 129.32 118 130 C118.61875 130.0825 119.2375 130.165 119.875 130.25 C122 131 122 131 123.125 133 C123.41375 133.66 123.7025 134.32 124 135 C124.66 135.33 125.32 135.66 126 136 C126.33 136.99 126.66 137.98 127 139 C128.62339805 140.70884005 130.29319053 142.37446717 132 144 C132.53625 144.5775 133.0725 145.155 133.625 145.75 C135.09616618 147.25659086 135.09616618 147.25659086 138 148 C138.70211894 149.65204456 139.36971413 151.31923769 140 153 C140.66 153.33 141.32 153.66 142 154 C142 154.66 142 155.32 142 156 C142.66 156 143.32 156 144 156 C145.47265625 157.390625 145.47265625 157.390625 147.0625 159.25 C147.58972656 159.85328125 148.11695313 160.4565625 148.66015625 161.078125 C150 163 150 163 150.43359375 165.109375 C150.71396484 166.04523438 150.71396484 166.04523438 151 167 C152.32073963 167.69128074 153.65616449 168.3547649 155 169 C156.8515625 171.1640625 156.8515625 171.1640625 158.625 173.625 C159.70354973 175.11801426 160.81916951 176.58649355 162 178 C162.66 178 163.32 178 164 178 C164.45375 178.78375 164.9075 179.5675 165.375 180.375 C166.71755634 183.08948575 166.71755634 183.08948575 168.9375 183.875 C172.22872813 185.67021535 173.22497184 188.74578171 175 192 C177.11785113 193.11785113 177.11785113 193.11785113 180 194 C181.03432904 195.98246398 182.03238392 197.98413316 183 200 C183.9793879 201.02019573 184.97895449 202.02149805 186 203 C187 204.66666667 188 206.33333333 189 208 C190.18895236 209.94032404 190.18895236 209.94032404 192 211 C195.14921909 210.76716851 195.14921909 210.76716851 198 210 C197.34 211.65 196.68 213.3 196 215 C196.66 215.33 197.32 215.66 198 216 C199.125 218.0625 199.125 218.0625 200 220 C200.66 220 201.32 220 202 220 C202 219.34 202 218.68 202 218 C202.99 217.67 203.98 217.34 205 217 C205.33 218.65 205.66 220.3 206 222 C206.66 222 207.32 222 208 222 C207.67 223.32 207.34 224.64 207 226 C207.66 225.34 208.32 224.68 209 224 C210.32 224 211.64 224 213 224 C213.33 223.34 213.66 222.68 214 222 C216.06640625 220.9296875 216.06640625 220.9296875 218.5625 219.875 C219.80193359 219.34519531 219.80193359 219.34519531 221.06640625 218.8046875 C221.70449219 218.53914062 222.34257812 218.27359375 223 218 C223 217.34 223 216.68 223 216 C225.31 215.67 227.62 215.34 230 215 C230.33 213.68 230.66 212.36 231 211 C231.99 211.33 232.98 211.66 234 212 C234.33 210.68 234.66 209.36 235 208 C235.556875 207.938125 236.11375 207.87625 236.6875 207.8125 C239.95765706 206.6635259 241.63046369 204.48801312 244 202 C245.31963709 200.98199424 246.65009646 199.97751635 248 199 C248.66 198.34 249.32 197.68 250 197 C252.625 196.875 252.625 196.875 255 197 C255.0825 196.071875 255.165 195.14375 255.25 194.1875 C256 191 256 191 258.0625 189.125 C258.701875 188.75375 259.34125 188.3825 260 188 C260 188.66 260 189.32 260 190 C260.66 189.67 261.32 189.34 262 189 C262 188.34 262 187.68 262 187 C264.31 186.67 266.62 186.34 269 186 C264.80970595 191.15328088 260.44909919 195.38171713 255.25 199.5 C254.53827637 200.06895996 253.82655273 200.63791992 253.09326172 201.22412109 C242.30571446 209.78990936 230.82240669 216.96239695 219 224 C218.39816895 224.3614209 217.79633789 224.7228418 217.17626953 225.09521484 C215.66794579 225.99500333 214.14701279 226.87356579 212.625 227.75 C211.81289063 228.21921875 211.00078125 228.6884375 210.1640625 229.171875 C207.54386771 230.17454882 206.60937548 229.91939299 204 229 C201.94385126 227.02505319 200.06572942 225.06884094 198.1875 222.9375 C197.65125 222.34259766 197.115 221.74769531 196.5625 221.13476562 C193.29766311 217.50233814 190.079792 213.82842754 186.88671875 210.1328125 C184.41114677 207.33433983 181.85895525 204.6087184 179.3125 201.875 C174.39816813 196.5939618 169.65940602 191.1840889 165.0090332 185.66943359 C162.96689995 183.25494656 160.92558085 180.92768939 158.65625 178.72265625 C157 177 157 177 157 175 C156.34 175 155.68 175 155 175 C153.5546875 173.56640625 153.5546875 173.56640625 151.875 171.5625 C148.50621429 167.58378677 145.0296018 163.7229439 141.50390625 159.8828125 C140 158 140 158 140 156 C139.34 156 138.68 156 138 156 C138 155.34 138 154.68 138 154 C137.01 153.67 136.02 153.34 135 153 C133.52201683 151.34442971 132.11417647 149.62553414 130.75 147.875 C127.45690674 143.73033761 124.09411492 139.93762585 120.21484375 136.33984375 C119 135 119 135 119 133 C118.34 133 117.68 133 117 133 C115.54597658 131.3623728 114.16151322 129.66265804 112.8125 127.9375 C109.49720572 123.77460622 106.11466034 119.95668045 102.21484375 116.33984375 C101 115 101 115 101 113 C100.34 113 99.68 113 99 113 C97.4921875 111.5390625 97.4921875 111.5390625 95.875 109.625 C95.33617187 108.99851562 94.79734375 108.37203125 94.2421875 107.7265625 C93 106 93 106 93 104 C92.34 104 91.68 104 91 104 C89.2734375 102.3203125 89.2734375 102.3203125 87.375 100.125 C86.74335938 99.40570313 86.11171875 98.68640625 85.4609375 97.9453125 C84 96 84 96 84 94 C83.34 94 82.68 94 82 94 C82 93.34 82 92.68 82 92 C81.34 92 80.68 92 80 92 C78.4765625 90.26953125 78.4765625 90.26953125 76.625 87.8125 C72.64846208 82.68408671 68.34932242 77.97034431 63.86181641 73.29223633 C60 69.20993989 60 69.20993989 60 67 C59.34 67 58.68 67 58 67 C58 66.34 58 65.68 58 65 C57.34 65 56.68 65 56 65 C56 64.34 56 63.68 56 63 C55.34 63 54.68 63 54 63 C52.52483679 61.34191655 51.119287 59.62153953 49.75 57.875 C47.10704701 54.55743219 44.5028587 51.37117264 41.4375 48.4375 C40.633125 47.633125 39.82875 46.82875 39 46 C39 45.34 39 44.68 39 44 C38.34 44 37.68 44 37 44 C37 43.34 37 42.68 37 42 C36.34 42 35.68 42 35 42 C33.54597658 40.3623728 32.16151322 38.66265804 30.8125 36.9375 C27.49720572 32.77460622 24.11466034 28.95668045 20.21484375 25.33984375 C19 24 19 24 19 22 C18.34 22 17.68 22 17 22 C17 21.34 17 20.68 17 20 C16.34 20 15.68 20 15 20 C13.58984375 18.6015625 13.58984375 18.6015625 11.9375 16.625 C9.02935433 13.20148675 6.07339727 9.83383262 3.0625 6.5 C2.29035156 5.6440625 1.51820312 4.788125 0.72265625 3.90625 C0.15417969 3.2771875 -0.41429688 2.648125 -1 2 C-0.67 1.34 -0.34 0.68 0 0 Z " fill="#060E64" transform="translate(106,40)"/>
<path d="M0 0 C3.8720392 0.12396359 5.7142128 1.43143896 8.33203125 4.08984375 C9.50357886 5.36199884 10.66345469 6.64498414 11.8125 7.9375 C12.40998047 8.58396484 13.00746094 9.23042969 13.62304688 9.89648438 C18 14.71363393 18 14.71363393 18 17 C18.66 17 19.32 17 20 17 C20 17.66 20 18.32 20 19 C20.66 19 21.32 19 22 19 C23.65625 20.609375 23.65625 20.609375 25.5 22.75 C26.1084375 23.44609375 26.716875 24.1421875 27.34375 24.859375 C28.87976963 26.84460792 29.9723966 28.71872045 31 31 C31.66 31 32.32 31 33 31 C34.65625 32.609375 34.65625 32.609375 36.5 34.75 C37.1084375 35.44609375 37.716875 36.1421875 38.34375 36.859375 C39.87976963 38.84460792 40.9723966 40.71872045 42 43 C42.66 43 43.32 43 44 43 C44 43.66 44 44.32 44 45 C44.66 45 45.32 45 46 45 C47.7265625 46.6796875 47.7265625 46.6796875 49.625 48.875 C50.25664062 49.59429687 50.88828125 50.31359375 51.5390625 51.0546875 C53 53 53 53 53 55 C53.66 55 54.32 55 55 55 C56.69140625 56.64453125 56.69140625 56.64453125 58.5625 58.8125 C59.18253906 59.52019531 59.80257812 60.22789062 60.44140625 60.95703125 C62 63 62 63 63 66 C63.66 66 64.32 66 65 66 C65 66.66 65 67.32 65 68 C65.66 68 66.32 68 67 68 C68.33984375 69.328125 68.33984375 69.328125 69.9375 71.25 C72.20679462 73.93276779 74.50670994 76.56655115 76.90625 79.1328125 C77.65660522 79.9367041 77.65660522 79.9367041 78.42211914 80.75683594 C79.4256602 81.82844383 80.4326231 82.8968583 81.44311523 83.96191406 C85 87.77930131 85 87.77930131 85 90 C85.66 90 86.32 90 87 90 C87 90.66 87 91.32 87 92 C87.66 92 88.32 92 89 92 C89 92.66 89 93.32 89 94 C89.66 94 90.32 94 91 94 C91 94.66 91 95.32 91 96 C91.66 96 92.32 96 93 96 C97 100.47058824 97 100.47058824 97 103 C35.62 103 -25.76 103 -89 103 C-88.67 102.01 -88.34 101.02 -88 100 C-87.67 100.66 -87.34 101.32 -87 102 C-28.26 101.67 30.48 101.34 91 101 C91.33 100.01 91.66 99.02 92 98 C90.68 97.67 89.36 97.34 88 97 C88 96.34 88 95.68 88 95 C87.01 95.33 86.02 95.66 85 96 C84.34 95.67 83.68 95.34 83 95 C83 94.01 83 93.02 83 92 C82.34 92 81.68 92 81 92 C81 91.34 81 90.68 81 90 C80.34 89.67 79.68 89.34 79 89 C77.94773272 87.02699884 76.95211112 85.02323613 76 83 C75.608125 82.21625 75.21625 81.4325 74.8125 80.625 C74.544375 80.08875 74.27625 79.5525 74 79 C73.34 79 72.68 79 72 79 C72 78.34 72 77.68 72 77 C71.01 76.67 70.02 76.34 69 76 C67.31288577 74.3540349 65.6454378 72.68762851 64 71 C63.34 70.67 62.68 70.34 62 70 C61.33333333 68.66666667 60.66666667 67.33333333 60 66 C59.34 65.67 58.68 65.34 58 65 C58 64.34 58 63.68 58 63 C56.35 62.67 54.7 62.34 53 62 C53 60.35 53 58.7 53 57 C51.35 56.67 49.7 56.34 48 56 C48 54.02 48 52.04 48 50 C47.2265625 49.814375 47.2265625 49.814375 46.4375 49.625 C43.27297649 48.81358372 40.13875015 47.9054087 37 47 C37.04125 46.05125 37.0825 45.1025 37.125 44.125 C37.34973818 40.89755144 37.34973818 40.89755144 35 39 C32.42938689 38.35232207 32.42938689 38.35232207 30 38 C29.34 35.69 28.68 33.38 28 31 C27.030625 30.87625 26.06125 30.7525 25.0625 30.625 C24.051875 30.41875 23.04125 30.2125 22 30 C20.5216774 27.04335481 20.93967217 24.25770263 21 21 C20.34 21 19.68 21 19 21 C19 20.34 19 19.68 19 19 C17.9171875 18.6596875 17.9171875 18.6596875 16.8125 18.3125 C12.67342937 16.38093371 10.024601 13.47542544 7.4375 9.75 C6.11583404 7.89882199 6.11583404 7.89882199 4.125 7.0625 C0.86261077 6.96654738 -0.54922125 7.88040757 -3 10 C-3.83003243 13.47677815 -3.83003243 13.47677815 -4 17 C-4.495 18.485 -4.495 18.485 -5 20 C-5.99 18.515 -5.99 18.515 -7 17 C-8.1446875 17.4640625 -8.1446875 17.4640625 -9.3125 17.9375 C-11.18789677 18.67893593 -13.08684652 19.36228217 -15 20 C-16.16666667 21.91666667 -16.16666667 21.91666667 -17 24 C-17.33 24.66 -17.66 25.32 -18 26 C-18.99 26 -19.98 26 -21 26 C-21 26.66 -21 27.32 -21 28 C-21.66 27.67 -22.32 27.34 -23 27 C-22.36384766 26.29037109 -22.36384766 26.29037109 -21.71484375 25.56640625 C-17.74385216 21.08922233 -14.03507377 16.5028917 -10.48046875 11.6875 C-9.99191406 11.130625 -9.50335938 10.57375 -9 10 C-8.34 10 -7.68 10 -7 10 C-7 9.34 -7 8.68 -7 8 C-6.34 8 -5.68 8 -5 8 C-4.731875 7.4225 -4.46375 6.845 -4.1875 6.25 C-2.98280141 3.9674132 -1.59201885 2.0262058 0 0 Z " fill="#134788" transform="translate(139,264)"/>
<path d="M0 0 C2.34375 0.234375 2.34375 0.234375 5 1 C6.40625 2.890625 6.40625 2.890625 7.5 5.25 C9.00769518 8.26060403 10.35094796 10.62849484 12.8125 12.9375 C13.534375 13.618125 14.25625 14.29875 15 15 C15 15.66 15 16.32 15 17 C15.61875 17.0825 16.2375 17.165 16.875 17.25 C19 18 19 18 20.125 20 C20.41375 20.66 20.7025 21.32 21 22 C21.66 22.33 22.32 22.66 23 23 C23.33 23.99 23.66 24.98 24 26 C25.62339805 27.70884005 27.29319053 29.37446717 29 31 C29.53625 31.5775 30.0725 32.155 30.625 32.75 C32.09616618 34.25659086 32.09616618 34.25659086 35 35 C35.70211894 36.65204456 36.36971413 38.31923769 37 40 C37.99 40.495 37.99 40.495 39 41 C39 41.66 39 42.32 39 43 C39.66 43 40.32 43 41 43 C42.47265625 44.390625 42.47265625 44.390625 44.0625 46.25 C44.58972656 46.85328125 45.11695313 47.4565625 45.66015625 48.078125 C47 50 47 50 47.43359375 52.109375 C47.62050781 52.73328125 47.80742187 53.3571875 48 54 C49.32073963 54.69128074 50.65616449 55.3547649 52 56 C53.8515625 58.1640625 53.8515625 58.1640625 55.625 60.625 C56.70354973 62.11801426 57.81916951 63.58649355 59 65 C59.66 65 60.32 65 61 65 C61.45375 65.78375 61.9075 66.5675 62.375 67.375 C63.71755634 70.08948575 63.71755634 70.08948575 65.9375 70.875 C69.22872813 72.67021535 70.22497184 75.74578171 72 79 C74.11785113 80.11785113 74.11785113 80.11785113 77 81 C78.03432904 82.98246398 79.03238392 84.98413316 80 87 C80.9793879 88.02019573 81.97895449 89.02149805 83 90 C84 91.66666667 85 93.33333333 86 95 C87.18895236 96.94032404 87.18895236 96.94032404 89 98 C92.14921909 97.76716851 92.14921909 97.76716851 95 97 C94.34 98.65 93.68 100.3 93 102 C93.66 102.33 94.32 102.66 95 103 C96.125 105.0625 96.125 105.0625 97 107 C97.66 107 98.32 107 99 107 C99 106.34 99 105.68 99 105 C99.99 104.67 100.98 104.34 102 104 C102.33 105.65 102.66 107.3 103 109 C103.66 109 104.32 109 105 109 C104.505 110.98 104.505 110.98 104 113 C104.66 112.34 105.32 111.68 106 111 C107.32 111 108.64 111 110 111 C110.33 110.34 110.66 109.68 111 109 C113.06640625 107.9296875 113.06640625 107.9296875 115.5625 106.875 C116.38878906 106.52179688 117.21507812 106.16859375 118.06640625 105.8046875 C118.70449219 105.53914063 119.34257812 105.27359375 120 105 C120 104.34 120 103.68 120 103 C123.465 102.505 123.465 102.505 127 102 C127.495 100.02 127.495 100.02 128 98 C128.99 98.33 129.98 98.66 131 99 C131.33 97.68 131.66 96.36 132 95 C132.556875 94.938125 133.11375 94.87625 133.6875 94.8125 C136.95765706 93.6635259 138.63046369 91.48801312 141 89 C142.31963709 87.98199424 143.65009646 86.97751635 145 86 C145.66 85.34 146.32 84.68 147 84 C149.625 83.875 149.625 83.875 152 84 C152.0825 83.071875 152.165 82.14375 152.25 81.1875 C153 78 153 78 155.0625 76.125 C155.701875 75.75375 156.34125 75.3825 157 75 C157 75.66 157 76.32 157 77 C157.66 76.67 158.32 76.34 159 76 C159 75.34 159 74.68 159 74 C162.465 73.505 162.465 73.505 166 73 C161.80970595 78.15328088 157.44909919 82.38171713 152.25 86.5 C151.53827637 87.06895996 150.82655273 87.63791992 150.09326172 88.22412109 C139.30571446 96.78990936 127.82240669 103.96239695 116 111 C115.39816895 111.3614209 114.79633789 111.7228418 114.17626953 112.09521484 C112.66794579 112.99500333 111.14701279 113.87356579 109.625 114.75 C108.81289063 115.21921875 108.00078125 115.6884375 107.1640625 116.171875 C104.54386771 117.17454882 103.60937548 116.91939299 101 116 C98.94385126 114.02505319 97.06572942 112.06884094 95.1875 109.9375 C94.383125 109.04514648 94.383125 109.04514648 93.5625 108.13476562 C90.29766311 104.50233814 87.079792 100.82842754 83.88671875 97.1328125 C81.41114677 94.33433983 78.85895525 91.6087184 76.3125 88.875 C71.39816813 83.5939618 66.65940602 78.1840889 62.0090332 72.66943359 C59.96689995 70.25494656 57.92558085 67.92768939 55.65625 65.72265625 C54 64 54 64 54 62 C53.34 62 52.68 62 52 62 C50.5546875 60.56640625 50.5546875 60.56640625 48.875 58.5625 C45.50621429 54.58378677 42.0296018 50.7229439 38.50390625 46.8828125 C37 45 37 45 37 43 C36.34 43 35.68 43 35 43 C35 42.34 35 41.68 35 41 C34.01 40.67 33.02 40.34 32 40 C30.52201683 38.34442971 29.11417647 36.62553414 27.75 34.875 C24.45690674 30.73033761 21.09411492 26.93762585 17.21484375 23.33984375 C16 22 16 22 16 20 C15.34 20 14.68 20 14 20 C12.16015625 17.98828125 12.16015625 17.98828125 10.0625 15.3125 C9.37285156 14.44238281 8.68320313 13.57226562 7.97265625 12.67578125 C6.14081373 10.19100477 4.57575611 7.6505493 3 5 C2.443125 4.443125 1.88625 3.88625 1.3125 3.3125 C0.879375 2.879375 0.44625 2.44625 0 2 C0 1.34 0 0.68 0 0 Z " fill="#051066" transform="translate(209,153)"/>
<path d="M0 0 C16.65625483 -0.09386076 33.31242256 -0.16418202 49.96887875 -0.20724869 C57.70452201 -0.22778577 65.44 -0.25573459 73.17553711 -0.30175781 C79.92576313 -0.34189935 86.67586933 -0.36749696 93.42621142 -0.37635398 C96.99333176 -0.38152308 100.56010962 -0.39348172 104.12711906 -0.42292023 C118.87916778 -0.53989365 132.84124901 -0.60124952 147 4 C148.17461288 4.37872253 149.34922577 4.75744507 150.55943298 5.14764404 C156.88546152 7.29346517 162.58208593 10.30208325 168.3125 13.6875 C168.97781738 14.08026123 169.64313477 14.47302246 170.32861328 14.87768555 C171.92474208 15.85759808 173.46852981 16.92182804 175 18 C175 18.66 175 19.32 175 20 C175.7425 20.2475 176.485 20.495 177.25 20.75 C182.56319422 23.16508828 184.63549268 26.7980839 187 32 C181.53504395 31.11855548 181.53504395 31.11855548 179 30 C177.8125 27 177.8125 27 177 24 C174.71475105 22.56911789 174.71475105 22.56911789 172 22 C171.175 21.7525 170.35 21.505 169.5 21.25 C166.46985037 20.94698504 164.70887236 21.684262 162 23 C162 21.68 162 20.36 162 19 C163.98 18.505 163.98 18.505 166 18 C163.54195513 15.024472 161.71363957 14.69090969 158 14 C157.030625 13.484375 156.06125 12.96875 155.0625 12.4375 C151.74539085 10.88048958 149.61473619 10.74180456 146 11 C145.67 9.68 145.34 8.36 145 7 C142.03 6.67 139.06 6.34 136 6 C136 5.34 136 4.68 136 4 C134.8553125 4.556875 134.8553125 4.556875 133.6875 5.125 C132.3571875 5.558125 132.3571875 5.558125 131 6 C130.01 5.34 129.02 4.68 128 4 C127.67 4.66 127.34 5.32 127 6 C126.37504702 5.26608788 126.37504702 5.26608788 125.73746872 4.51734924 C122.79400657 1.94679358 119.07083876 2.72054823 115.35644531 2.83984375 C113.52986171 2.86933624 111.70323786 2.89641097 109.87658691 2.92138672 C108.91382339 2.93739929 107.95105988 2.95341187 106.9591217 2.96990967 C102.03178412 3.02001414 97.10880741 2.91760044 92.18261719 2.81640625 C91.15418324 2.79669266 90.12574928 2.77697906 89.06615067 2.75666809 C85.8096872 2.69375587 82.55328409 2.62816163 79.296875 2.5625 C76.99375738 2.51748977 74.69063637 2.47265252 72.38751221 2.42797852 C66.39706002 2.31132606 60.406656 2.19236259 54.41625977 2.07287598 C48.27493032 1.95080187 42.13355711 1.83097116 35.9921875 1.7109375 C23.99474843 1.47612276 11.99735916 1.23886041 0 1 C0 0.67 0 0.34 0 0 Z " fill="#2989D7" transform="translate(206,41)"/>
<path d="M0 0 C0.99 0.33 1.98 0.66 3 1 C3 1.66 3 2.32 3 3 C3.66 3 4.32 3 5 3 C6.4453125 4.43359375 6.4453125 4.43359375 8.125 6.4375 C11.49378571 10.41621323 14.9703982 14.2770561 18.49609375 18.1171875 C20 20 20 20 20 22 C20.66 22 21.32 22 22 22 C23.44750977 23.45556641 23.44750977 23.45556641 25.12890625 25.4765625 C27.66961468 28.46586373 30.25551425 31.37322583 32.96484375 34.2109375 C33.61904297 34.89800781 34.27324219 35.58507812 34.94726562 36.29296875 C36.29885345 37.70689674 37.6531172 39.11827064 39.00976562 40.52734375 C39.65494141 41.20667969 40.30011719 41.88601562 40.96484375 42.5859375 C41.5487085 43.1948584 42.13257324 43.8037793 42.73413086 44.43115234 C44 46 44 46 44 48 C44.66 48 45.32 48 46 48 C46 48.66 46 49.32 46 50 C46.66 50 47.32 50 48 50 C49.33984375 51.328125 49.33984375 51.328125 50.9375 53.25 C53.20679462 55.93276779 55.50670994 58.56655115 57.90625 61.1328125 C58.40648682 61.66874023 58.90672363 62.20466797 59.42211914 62.75683594 C60.4256602 63.82844383 61.4326231 64.8968583 62.44311523 65.96191406 C66 69.77930131 66 69.77930131 66 72 C66.66 72 67.32 72 68 72 C68 72.66 68 73.32 68 74 C68.66 74 69.32 74 70 74 C70 74.66 70 75.32 70 76 C70.66 76 71.32 76 72 76 C72 76.66 72 77.32 72 78 C70.35 78 68.7 78 67 78 C66.34 76.02 65.68 74.04 65 72 C64.34 72 63.68 72 63 72 C63 71.34 63 70.68 63 70 C62.34 70 61.68 70 61 70 C61 69.34 61 68.68 61 68 C60.401875 67.773125 59.80375 67.54625 59.1875 67.3125 C57 66 57 66 55.4375 63.375 C54.963125 62.59125 54.48875 61.8075 54 61 C53.01 61 52.02 61 51 61 C50.9175 60.4225 50.835 59.845 50.75 59.25 C49.7973369 56.39201069 48.13946926 55.07045412 46 53 C46 52.34 46 51.68 46 51 C45.401875 50.731875 44.80375 50.46375 44.1875 50.1875 C42.00152146 49.00082594 40.58667406 47.90400887 39 46 C39 45.34 39 44.68 39 44 C38.34 44 37.68 44 37 44 C35.52736092 42.31824617 34.12126535 40.57788753 32.75 38.8125 C28.5430043 33.55037355 24.60158731 29.73439154 19 26 C19 25.34 19 24.68 19 24 C18.34 24 17.68 24 17 24 C15.95703125 22.53125 15.95703125 22.53125 14.8125 20.5 C12.40322174 16.44606472 9.56847105 13.10313959 6.35546875 9.6640625 C5 8 5 8 5 6 C3.68 5.67 2.36 5.34 1 5 C-3.60435158 10.16914479 -3.60435158 10.16914479 -7.9375 15.5625 C-9.84170427 17.81292323 -11.7669836 19.58774839 -14 21.5 C-18.63271916 25.48569134 -22.27648917 28.66928025 -23 35 C-22.34 35 -21.68 35 -21 35 C-20.67 36.32 -20.34 37.64 -20 39 C-20.66 39 -21.32 39 -22 39 C-22 38.34 -22 37.68 -22 37 C-22.66 37 -23.32 37 -24 37 C-25.6875 35.25 -25.6875 35.25 -27 33 C-26.58907258 29.65779029 -25.24865798 27.75152062 -23.0625 25.25 C-22.53785156 24.63640625 -22.01320312 24.0228125 -21.47265625 23.390625 C-20 22 -20 22 -18 22 C-17.690625 21.38125 -17.38125 20.7625 -17.0625 20.125 C-16.375 18.75 -15.6875 17.375 -15 16 C-14.34 16 -13.68 16 -13 16 C-13 15.34 -13 14.68 -13 14 C-12.34 14 -11.68 14 -11 14 C-10.7525 13.443125 -10.505 12.88625 -10.25 12.3125 C-8.77075182 9.57589087 -7.06532561 7.32349131 -5 5 C-4.34 5 -3.68 5 -3 5 C-2.690625 4.360625 -2.38125 3.72125 -2.0625 3.0625 C-1 1 -1 1 0 0 Z " fill="#051562" transform="translate(184,213)"/>
<path d="M0 0 C3.8720392 0.12396359 5.7142128 1.43143896 8.33203125 4.08984375 C9.50357886 5.36199884 10.66345469 6.64498414 11.8125 7.9375 C12.40998047 8.58396484 13.00746094 9.23042969 13.62304688 9.89648438 C18 14.71363393 18 14.71363393 18 17 C18.66 17 19.32 17 20 17 C20 17.66 20 18.32 20 19 C20.66 19 21.32 19 22 19 C23.65625 20.609375 23.65625 20.609375 25.5 22.75 C26.1084375 23.44609375 26.716875 24.1421875 27.34375 24.859375 C28.87976963 26.84460792 29.9723966 28.71872045 31 31 C31.66 31 32.32 31 33 31 C34.65625 32.609375 34.65625 32.609375 36.5 34.75 C37.1084375 35.44609375 37.716875 36.1421875 38.34375 36.859375 C39.87976963 38.84460792 40.9723966 40.71872045 42 43 C41.13375 42.54625 40.2675 42.0925 39.375 41.625 C36.10744823 39.89922169 36.10744823 39.89922169 32.75 39.25 C30 38 30 38 28.625 34.375 C28.41875 33.26125 28.2125 32.1475 28 31 C27.030625 30.87625 26.06125 30.7525 25.0625 30.625 C24.051875 30.41875 23.04125 30.2125 22 30 C20.5216774 27.04335481 20.93967217 24.25770263 21 21 C20.34 21 19.68 21 19 21 C19 20.34 19 19.68 19 19 C18.278125 18.773125 17.55625 18.54625 16.8125 18.3125 C12.67342937 16.38093371 10.024601 13.47542544 7.4375 9.75 C6.11583404 7.89882199 6.11583404 7.89882199 4.125 7.0625 C0.86261077 6.96654738 -0.54922125 7.88040757 -3 10 C-3.83003243 13.47677815 -3.83003243 13.47677815 -4 17 C-4.33 17.99 -4.66 18.98 -5 20 C-5.66 19.01 -6.32 18.02 -7 17 C-8.1446875 17.4640625 -8.1446875 17.4640625 -9.3125 17.9375 C-11.18789677 18.67893593 -13.08684652 19.36228217 -15 20 C-16.16666667 21.91666667 -16.16666667 21.91666667 -17 24 C-17.33 24.66 -17.66 25.32 -18 26 C-18.99 26 -19.98 26 -21 26 C-21 26.66 -21 27.32 -21 28 C-21.66 27.67 -22.32 27.34 -23 27 C-22.57589844 26.52691406 -22.15179688 26.05382812 -21.71484375 25.56640625 C-17.74385216 21.08922233 -14.03507377 16.5028917 -10.48046875 11.6875 C-9.99191406 11.130625 -9.50335938 10.57375 -9 10 C-8.34 10 -7.68 10 -7 10 C-7 9.34 -7 8.68 -7 8 C-6.34 8 -5.68 8 -5 8 C-4.731875 7.4225 -4.46375 6.845 -4.1875 6.25 C-2.98280141 3.9674132 -1.59201885 2.0262058 0 0 Z " fill="#0C39A0" transform="translate(139,264)"/>
<path d="M0 0 C-6.36906166 6.82399464 -13.59688532 12.36064344 -21 18 C-22.34578125 19.03833984 -22.34578125 19.03833984 -23.71875 20.09765625 C-32.06463698 26.36995094 -41.03131892 31.67771663 -50 37 C-50.65137939 37.39574219 -51.30275879 37.79148437 -51.97387695 38.19921875 C-56.24846553 40.74573395 -58.98391649 41.75714468 -64 41 C-66.4375 39.125 -66.4375 39.125 -68 37 C-68 36.34 -68 35.68 -68 35 C-67.34 35 -66.68 35 -66 35 C-66.33 33.68 -66.66 32.36 -67 31 C-66.01 30.67 -65.02 30.34 -64 30 C-63.67 31.65 -63.34 33.3 -63 35 C-62.34 35 -61.68 35 -61 35 C-61.33 36.32 -61.66 37.64 -62 39 C-61.34 38.34 -60.68 37.68 -60 37 C-58.68 37 -57.36 37 -56 37 C-55.67 36.34 -55.34 35.68 -55 35 C-52.93359375 33.9296875 -52.93359375 33.9296875 -50.4375 32.875 C-49.61121094 32.52179688 -48.78492188 32.16859375 -47.93359375 31.8046875 C-47.29550781 31.53914063 -46.65742188 31.27359375 -46 31 C-46 30.34 -46 29.68 -46 29 C-42.535 28.505 -42.535 28.505 -39 28 C-38.67 26.68 -38.34 25.36 -38 24 C-37.01 24.33 -36.02 24.66 -35 25 C-34.67 23.68 -34.34 22.36 -34 21 C-33.443125 20.938125 -32.88625 20.87625 -32.3125 20.8125 C-29.04234294 19.6635259 -27.36953631 17.48801312 -25 15 C-23.68036291 13.98199424 -22.34990354 12.97751635 -21 12 C-20.34 11.34 -19.68 10.68 -19 10 C-16.375 9.875 -16.375 9.875 -14 10 C-13.9175 9.071875 -13.835 8.14375 -13.75 7.1875 C-13 4 -13 4 -10.9375 2.125 C-9.9784375 1.568125 -9.9784375 1.568125 -9 1 C-9 1.66 -9 2.32 -9 3 C-8.34 2.67 -7.68 2.34 -7 2 C-7 1.34 -7 0.68 -7 0 C-3.98968256 -0.93423645 -3.13349732 -1.04449911 0 0 Z " fill="#081E7E" transform="translate(375,227)"/>
<path d="M0 0 C72.6 0 145.2 0 220 0 C220 0.33 220 0.66 220 1 C149.05 1.33 78.1 1.66 5 2 C5.33 3.98 5.66 5.96 6 8 C3.69 6.02 1.38 4.04 -1 2 C-0.67 1.34 -0.34 0.68 0 0 Z " fill="#001E50" transform="translate(106,40)"/>
<path d="M0 0 C2.25 0.1328125 2.25 0.1328125 5 1 C7.0625 3.5546875 7.0625 3.5546875 9 6.875 C9.34248779 7.45999268 9.68497559 8.04498535 10.0378418 8.64770508 C16.66777035 20.17237948 21.77499195 31.50939942 21 45 C17.67483117 42.10388521 16.66421365 40.31738876 16 36 C15.34 35.01 14.68 34.02 14 33 C13.86620324 30.69200591 14.00194491 28.46353293 14.125 26.15625 C14.16490221 23.69960209 14.16490221 23.69960209 12 21 C12 20.01 12 19.02 12 18 C10.35 18 8.7 18 7 18 C6.67 15.36 6.34 12.72 6 10 C4.68 10 3.36 10 2 10 C1.34 9.67 0.68 9.34 0 9 C0 6.03 0 3.06 0 0 Z " fill="#3B8EB2" transform="translate(394,77)"/>
<path d="M0 0 C5.64149423 -0.52889008 9.16180491 1.18539283 14 3.75 C14.68578125 4.09804688 15.3715625 4.44609375 16.078125 4.8046875 C20.24332637 6.95087905 24.23671905 9.20105979 28 12 C28 12.66 28 13.32 28 14 C28.7425 14.2475 29.485 14.495 30.25 14.75 C35.56319422 17.16508828 37.63549268 20.7980839 40 26 C34.53504395 25.11855548 34.53504395 25.11855548 32 24 C30.8125 21 30.8125 21 30 18 C27.71475105 16.56911789 27.71475105 16.56911789 25 16 C24.175 15.7525 23.35 15.505 22.5 15.25 C19.46985037 14.94698504 17.70887236 15.684262 15 17 C15 15.68 15 14.36 15 13 C16.32 12.67 17.64 12.34 19 12 C16.54195513 9.024472 14.71363957 8.69090969 11 8 C9.5459375 7.2265625 9.5459375 7.2265625 8.0625 6.4375 C4.74539085 4.88048958 2.61473619 4.74180456 -1 5 C-0.67 3.35 -0.34 1.7 0 0 Z " fill="#3A8EAC" transform="translate(353,47)"/>
<path d="M0 0 C1.32708733 0.00539291 1.32708733 0.00539291 2.6809845 0.01089478 C4.07108734 0.01067574 4.07108734 0.01067574 5.48927307 0.01045227 C8.56809285 0.01115178 11.64685295 0.01894595 14.72566223 0.02676392 C16.85415616 0.02862796 18.98265051 0.03005193 21.11114502 0.03105164 C26.72537919 0.03487789 32.33958766 0.04470909 37.95381165 0.05575562 C43.67788851 0.06596743 49.40196951 0.07054876 55.12605286 0.07559204 C66.36629855 0.08633126 77.60652513 0.10340896 88.84675598 0.12442017 C88.84675598 0.45442017 88.84675598 0.78442017 88.84675598 1.12442017 C68.41472093 1.95854955 48.02930102 2.25953486 27.58241272 2.19308472 C23.98042939 2.18256448 20.37843797 2.17822795 16.77644348 2.17324829 C9.79986271 2.1627534 2.8233125 2.14585822 -4.15324402 2.12442017 C-4.15324402 3.44442017 -4.15324402 4.76442017 -4.15324402 6.12442017 C-3.16324402 6.45442017 -2.17324402 6.78442017 -1.15324402 7.12442017 C-0.46574402 9.18692017 -0.46574402 9.18692017 -0.15324402 11.12442017 C-1.14324402 10.46442017 -2.13324402 9.80442017 -3.15324402 9.12442017 C-3.15324402 8.46442017 -3.15324402 7.80442017 -3.15324402 7.12442017 C-3.81324402 7.12442017 -4.47324402 7.12442017 -5.15324402 7.12442017 C-5.81324402 5.14442017 -6.47324402 3.16442017 -7.15324402 1.12442017 C-5.26439207 -0.76443179 -2.51272643 0.00431382 0 0 Z " fill="#113199" transform="translate(117.15324401855469,40.875579833984375)"/>
<path d="M0 0 C-0.45890625 0.51949219 -0.9178125 1.03898438 -1.390625 1.57421875 C-5.27637652 5.97568232 -5.27637652 5.97568232 -8.9375 10.5625 C-10.84170427 12.81292323 -12.7669836 14.58774839 -15 16.5 C-19.63271916 20.48569134 -23.27648917 23.66928025 -24 30 C-23.34 30 -22.68 30 -22 30 C-21.67 31.32 -21.34 32.64 -21 34 C-21.66 34 -22.32 34 -23 34 C-23 33.34 -23 32.68 -23 32 C-23.66 32 -24.32 32 -25 32 C-26.6875 30.25 -26.6875 30.25 -28 28 C-27.58907258 24.65779029 -26.24865798 22.75152062 -24.0625 20.25 C-23.53785156 19.63640625 -23.01320312 19.0228125 -22.47265625 18.390625 C-21 17 -21 17 -19 17 C-18.690625 16.38125 -18.38125 15.7625 -18.0625 15.125 C-17.375 13.75 -16.6875 12.375 -16 11 C-15.34 11 -14.68 11 -14 11 C-14 10.34 -14 9.68 -14 9 C-13.34 9 -12.68 9 -12 9 C-11.7525 8.443125 -11.505 7.88625 -11.25 7.3125 C-8.56144842 2.33867957 -6.11776737 -2.03925579 0 0 Z " fill="#031357" transform="translate(185,218)"/>
<path d="M0 0 C0.66 0 1.32 0 2 0 C1.3663448 2.95705762 0.66604512 5.46126458 -1 8 C-1.99 8.598125 -2.98 9.19625 -4 9.8125 C-7.78145591 12.5698116 -7.80000734 14.60002692 -9 19 C-11.5 20.75 -11.5 20.75 -14 22 C-14.66 22.99 -15.32 23.98 -16 25 C-17.32520503 25.68268138 -18.65812182 26.3507041 -20 27 C-20.33 27.66 -20.66 28.32 -21 29 C-21.99 29 -22.98 29 -24 29 C-24 29.66 -24 30.32 -24 31 C-24.99 31.33 -25.98 31.66 -27 32 C-27 31.34 -27 30.68 -27 30 C-26.34 30 -25.68 30 -25 30 C-24.77441406 29.45601563 -24.54882812 28.91203125 -24.31640625 28.3515625 C-22.58776213 25.26359881 -20.35449856 22.95545026 -17.9375 20.375 C-14.58466353 16.95790247 -14.58466353 16.95790247 -12 13 C-11.34 13 -10.68 13 -10 13 C-9.74347656 12.41476562 -9.48695312 11.82953125 -9.22265625 11.2265625 C-7.89437838 8.80765392 -6.43475199 7.26801128 -4.4375 5.375 C-1.85984611 2.95478041 -1.85984611 2.95478041 0 0 Z " fill="#0F6ABB" transform="translate(94,315)"/>
<path d="M0 0 C2.375 -0.1875 2.375 -0.1875 5 0 C7 3 7 3 7 6 C7.66 6 8.32 6 9 6 C9.33 6.99 9.66 7.98 10 9 C10.66 9.33 11.32 9.66 12 10 C12.66 10.33 13.32 10.66 14 11 C14.33 11.99 14.66 12.98 15 14 C32.49 14 49.98 14 68 14 C68 13.01 68 12.02 68 11 C68.99 12.65 69.98 14.3 71 16 C63.81157362 16.35056576 56.62503979 16.61551353 49.429739 16.77718258 C46.08528824 16.85489615 42.75117284 16.96803082 39.40917969 17.1315918 C16.01260349 18.24717275 16.01260349 18.24717275 9.04003906 12.62939453 C5.43791892 9.09495844 2.6136703 5.30843775 0 1 C0 0.67 0 0.34 0 0 Z " fill="#0E327D" transform="translate(339,444)"/>
<path d="M0 0 C1.485 0.99 1.485 0.99 3 2 C3 2.66 3 3.32 3 4 C3.54140625 4.20625 4.0828125 4.4125 4.640625 4.625 C7.92118012 6.53684669 10.23844174 9.20498504 12.75 12 C13.25660156 12.5465625 13.76320313 13.093125 14.28515625 13.65625 C18 17.74157682 18 17.74157682 18 20 C18.66 20 19.32 20 20 20 C20 20.66 20 21.32 20 22 C20.66 22 21.32 22 22 22 C22 22.66 22 23.32 22 24 C22.66 24 23.32 24 24 24 C24.66 25.32 25.32 26.64 26 28 C21.5390697 26.59799333 19.15322697 24.40216594 16 21 C15.401875 20.443125 14.80375 19.88625 14.1875 19.3125 C13 18 13 18 13 16 C10.03 15.505 10.03 15.505 7 15 C6.9175 14.4225 6.835 13.845 6.75 13.25 C5.7973369 10.39201069 4.13946926 9.07045412 2 7 C2 6.34 2 5.68 2 5 C1.34 5 0.68 5 0 5 C0 3.35 0 1.7 0 0 Z " fill="#071F79" transform="translate(290,328)"/>
<path d="M0 0 C0.495 0.99 0.495 0.99 1 2 C1.66 2 2.32 2 3 2 C3 2.66 3 3.32 3 4 C3.66 4 4.32 4 5 4 C5 4.66 5 5.32 5 6 C5.66 6 6.32 6 7 6 C7 6.66 7 7.32 7 8 C7.66 8 8.32 8 9 8 C13 12.47058824 13 12.47058824 13 15 C-6.8 15 -26.6 15 -47 15 C-47 14.67 -47 14.34 -47 14 C-20.27 13.505 -20.27 13.505 7 13 C7.33 12.01 7.66 11.02 8 10 C6.68 9.67 5.36 9.34 4 9 C4 8.34 4 7.68 4 7 C3.34 7 2.68 7 2 7 C0 4 0 4 0 0 Z " fill="#0E2F6B" transform="translate(223,352)"/>
<path d="M0 0 C-4.25369576 4.55046523 -8.76796015 8.6129951 -13.625 12.5 C-14.17502686 12.95745605 -14.72505371 13.41491211 -15.29174805 13.88623047 C-18.00183605 16.00780726 -19.39661615 17.0455384 -22.8984375 16.78125 C-23.59195312 16.5234375 -24.28546875 16.265625 -25 16 C-19 10 -19 10 -16.375 9.875 C-15.59125 9.91625 -14.8075 9.9575 -14 10 C-13.9175 9.071875 -13.835 8.14375 -13.75 7.1875 C-13 4 -13 4 -10.9375 2.125 C-10.298125 1.75375 -9.65875 1.3825 -9 1 C-9 1.66 -9 2.32 -9 3 C-8.34 2.67 -7.68 2.34 -7 2 C-7 1.34 -7 0.68 -7 0 C-3.98968256 -0.93423645 -3.13349732 -1.04449911 0 0 Z " fill="#0A3DA6" transform="translate(375,227)"/>
<path d="M0 0 C2 3 2 3 2 5 C1.01 4.67 0.02 4.34 -1 4 C-0.67 5.65 -0.34 7.3 0 9 C13.86 9.33 27.72 9.66 42 10 C42 10.33 42 10.66 42 11 C24.84 11 7.68 11 -10 11 C-9.34 9.68 -8.68 8.36 -8 7 C-7.01 8.485 -7.01 8.485 -6 10 C-5.7525 9.0925 -5.505 8.185 -5.25 7.25 C-3.96018658 3.89648511 -2.68028958 2.32291764 0 0 Z " fill="#1C9DE2" transform="translate(62,355)"/>
<path d="M0 0 C5.76751957 4.61401565 10.62178506 9.81849791 15.546875 15.29296875 C16.92830983 16.81738649 18.33726796 18.32069283 19.828125 19.73828125 C21 21 21 21 21 23 C21.66 23 22.32 23 23 23 C23 23.66 23 24.32 23 25 C18.23425991 24.29396443 15.23573346 21.44879096 12.1875 17.875 C11 16 11 16 11 14 C10.01 13.67 9.02 13.34 8 13 C7.01 12.34 6.02 11.68 5 11 C5 10.01 5 9.02 5 8 C4.0409375 7.5359375 4.0409375 7.5359375 3.0625 7.0625 C1 6 1 6 0 5 C-0.04063832 3.33382885 -0.042721 1.66611905 0 0 Z " fill="#082182" transform="translate(267,303)"/>
<path d="M0 0 C1.11979242 1.11979242 2.23889873 2.24027567 3.35546875 3.36328125 C4.5980685 4.59997791 5.85283833 5.82446294 7.11328125 7.04296875 C8.20189453 8.10451172 8.20189453 8.10451172 9.3125 9.1875 C10.00988281 9.86167969 10.70726562 10.53585937 11.42578125 11.23046875 C13 13 13 13 13 15 C13.66 15 14.32 15 15 15 C16.41015625 16.3984375 16.41015625 16.3984375 18.0625 18.375 C20.97064567 21.79851325 23.92660273 25.16616738 26.9375 28.5 C27.70964844 29.3559375 28.48179687 30.211875 29.27734375 31.09375 C29.84582031 31.7228125 30.41429687 32.351875 31 33 C30.67 33.66 30.34 34.32 30 35 C25.26087466 32.99903597 23.43400925 31.4623503 21 27 C18.62504313 24.00491551 16.13871203 21.10816122 13.3984375 18.44140625 C12 17 12 17 10.625 14.5625 C8.79323257 11.67394366 6.67165982 10.09400364 4 8 C4 7.34 4 6.68 4 6 C3.01 5.67 2.02 5.34 1 5 C0.67 3.35 0.34 1.7 0 0 Z " fill="#09267E" transform="translate(316,356)"/>
<path d="M0 0 C2.4375 0.375 2.4375 0.375 5 1 C5.33 1.66 5.66 2.32 6 3 C8.52733235 3.65555119 8.52733235 3.65555119 11 4 C11.59732819 6.76264289 12 9.16032769 12 12 C14.31 12.33 16.62 12.66 19 13 C19 14.66666667 19 16.33333333 19 18 C19.63903117 19.67745682 20.30341637 21.34561387 21 23 C19 21.625 19 21.625 17 20 C17 19.34 17 18.68 17 18 C16.44441406 17.77957031 15.88882813 17.55914062 15.31640625 17.33203125 C12.25197762 15.5698556 10.29509555 13.31534783 7.9375 10.6875 C7.08027344 9.74261719 6.22304687 8.79773438 5.33984375 7.82421875 C3.25489608 5.30766255 1.58346972 2.8502455 0 0 Z " fill="#082DA5" transform="translate(171,260)"/>
<path d="M0 0 C0.99 0.33 1.98 0.66 3 1 C3 1.66 3 2.32 3 3 C3.66 3 4.32 3 5 3 C6.4453125 4.43359375 6.4453125 4.43359375 8.125 6.4375 C11.49378571 10.41621323 14.9703982 14.2770561 18.49609375 18.1171875 C20 20 20 20 20 22 C20.66 22 21.32 22 22 22 C22.66 23.32 23.32 24.64 24 26 C23.01 26 22.02 26 21 26 C21 25.34 21 24.68 21 24 C19.68 24 18.36 24 17 24 C15.76171875 22.53125 15.76171875 22.53125 14.6875 20.5 C12.3509287 16.39639666 9.57208852 13.1070116 6.35546875 9.6640625 C5 8 5 8 5 6 C2.36 5.67 -0.28 5.34 -3 5 C-1.125 1.125 -1.125 1.125 0 0 Z " fill="#050D56" transform="translate(184,213)"/>
<path d="M0 0 C21.12 0 42.24 0 64 0 C64 0.33 64 0.66 64 1 C44.53 1.33 25.06 1.66 5 2 C5.33 3.98 5.66 5.96 6 8 C3.69 6.02 1.38 4.04 -1 2 C-0.67 1.34 -0.34 0.68 0 0 Z " fill="#000644" transform="translate(106,40)"/>
<path d="M0 0 C0.99 0.33 1.98 0.66 3 1 C2.67 2.32 2.34 3.64 2 5 C-18.46 5 -38.92 5 -60 5 C-60 4.67 -60 4.34 -60 4 C-59.29256149 3.99413376 -58.58512299 3.98826752 -57.85624695 3.98222351 C-51.19055068 3.92432899 -44.52517582 3.85227147 -37.85980511 3.76428509 C-34.43300921 3.71954972 -31.00633305 3.68030112 -27.5793457 3.65356445 C-23.6398769 3.62258953 -19.70091349 3.56779902 -15.76171875 3.51171875 C-14.53039719 3.50532883 -13.29907562 3.4989389 -12.03044128 3.49235535 C-10.88948502 3.47256119 -9.74852875 3.45276703 -8.57299805 3.43237305 C-7.567061 3.42126999 -6.56112396 3.41016693 -5.52470398 3.39872742 C-2.65439118 2.94541787 -1.76144436 2.25283872 0 0 Z " fill="#0F5BCC" transform="translate(228,361)"/>
<path d="M0 0 C13.86 0.33 27.72 0.66 42 1 C42 1.33 42 1.66 42 2 C28.36768465 3.41110843 14.68590943 3.0962545 1 3 C0.67 2.01 0.34 1.02 0 0 Z " fill="#0B4EC4" transform="translate(353,456)"/>
<path d="M0 0 C-3.40990065 3.61048304 -6.79756452 6.36317774 -11 9 C-11.68964844 9.44859375 -12.37929688 9.8971875 -13.08984375 10.359375 C-18.74508427 14 -18.74508427 14 -21 14 C-21 13.01 -21 12.02 -21 11 C-20.01 11 -19.02 11 -18 11 C-17.67 9.68 -17.34 8.36 -17 7 C-16.01 7.33 -15.02 7.66 -14 8 C-13.67 6.68 -13.34 5.36 -13 4 C-12.4225 3.896875 -11.845 3.79375 -11.25 3.6875 C-8.90849495 3.12492742 -8.90849495 3.12492742 -7.0625 1.4375 C-4.53166529 -0.3264151 -3.01962166 -0.25163514 0 0 Z " fill="#092884" transform="translate(354,244)"/>
<path d="M0 0 C1.32 0.33 2.64 0.66 4 1 C4.78769317 2.673848 5.56293631 4.35812732 6.203125 6.09375 C7.05222064 8.31863432 7.05222064 8.31863432 9.25 11.1875 C11 14 11 14 10.75 16.375 C10.5025 16.91125 10.255 17.4475 10 18 C9.01 18 8.02 18 7 18 C6.67 15.36 6.34 12.72 6 10 C4.68 10 3.36 10 2 10 C1.34 9.67 0.68 9.34 0 9 C0 6.03 0 3.06 0 0 Z " fill="#40BFF8" transform="translate(394,77)"/>
<path d="M0 0 C0.33 0.66 0.66 1.32 1 2 C1.99 2.33 2.98 2.66 4 3 C4.66666667 4.33333333 5.33333333 5.66666667 6 7 C6.99 7.33 7.98 7.66 9 8 C9 8.66 9 9.32 9 10 C9.66 10.33 10.32 10.66 11 11 C11.33 10.01 11.66 9.02 12 8 C12.82638376 10.89234315 13 12.88742431 13 16 C11.68 16 10.36 16 9 16 C9 15.34 9 14.68 9 14 C8.34 14 7.68 14 7 14 C5.30859375 12.171875 5.30859375 12.171875 3.4375 9.75 C2.81746094 8.96109375 2.19742188 8.1721875 1.55859375 7.359375 C0.09469335 5.14334532 -0.6698403 3.61810846 -1 1 C-0.67 0.67 -0.34 0.34 0 0 Z " fill="#05106D" transform="translate(179,118)"/>
<path d="M0 0 C2.475 0.99 2.475 0.99 5 2 C5 2.66 5 3.32 5 4 C5.7425 4.2475 6.485 4.495 7.25 4.75 C12.56319422 7.16508828 14.63549268 10.7980839 17 16 C11.53504395 15.11855548 11.53504395 15.11855548 9 14 C7.8125 11 7.8125 11 7 8 C4.49552484 6.78130071 4.49552484 6.78130071 2 6 C1.33333333 4 0.66666667 2 0 0 Z " fill="#2F7790" transform="translate(376,57)"/>
<path d="M0 0 C4.60625394 -0.32136655 7.33513904 0.08966924 11 3 C11 3.99 11 4.98 11 6 C12.65 6 14.3 6 16 6 C16 6.66 16 7.32 16 8 C14.25 8.6875 14.25 8.6875 12 9 C11.443125 8.54625 10.88625 8.0925 10.3125 7.625 C6.83439169 5.18092389 3.16210001 5.25790791 -1 5 C-0.67 3.35 -0.34 1.7 0 0 Z " fill="#39A4D3" transform="translate(353,47)"/>
<path d="M0 0 C0.66 0 1.32 0 2 0 C2.66 0.99 3.32 1.98 4 3 C5.32 3 6.64 3 8 3 C8.3403125 4.1446875 8.3403125 4.1446875 8.6875 5.3125 C9.77345645 8.19983083 9.77345645 8.19983083 12.5625 9.375 C15 11 15 11 15.8125 14.6875 C15.874375 15.780625 15.93625 16.87375 16 18 C15.01 17.34 14.02 16.68 13 16 C13 15.34 13 14.68 13 14 C12.34 14 11.68 14 11 14 C11 13.34 11 12.68 11 12 C10.34 12 9.68 12 9 12 C7.34375 10.390625 7.34375 10.390625 5.5 8.25 C4.8915625 7.55390625 4.283125 6.8578125 3.65625 6.140625 C2.12023037 4.15539208 1.0276034 2.28127955 0 0 Z " fill="#050B58" transform="translate(112,48)"/>
<path d="M0 0 C7.03128878 0.43384548 13.329015 1.74321997 20 4 C16.4513865 6.36574234 15.4235475 6.10865265 11.3125 5.625 C9.82169922 5.45871094 9.82169922 5.45871094 8.30078125 5.2890625 C7.54152344 5.19367187 6.78226562 5.09828125 6 5 C6 4.34 6 3.68 6 3 C3.03 2.505 3.03 2.505 0 2 C0 1.34 0 0.68 0 0 Z " fill="#3281A6" transform="translate(336,42)"/>
<path d="M0 0 C4.67452857 0.89038639 7.29578244 3.13455961 10 7 C11.02414355 9.9661516 11.59939473 12.89185569 12 16 C11.01 15.67 10.02 15.34 9 15 C9 14.01 9 13.02 9 12 C8.34 12 7.68 12 7 12 C7 11.34 7 10.68 7 10 C6.34 9.67 5.68 9.34 5 9 C3.96567096 7.01753602 2.96761608 5.01586684 2 3 C1.34 2.01 0.68 1.02 0 0 Z " fill="#0A3898" transform="translate(213,344)"/>
<path d="M0 0 C1.32 0.33 2.64 0.66 4 1 C4.33 2.32 4.66 3.64 5 5 C6.0828125 5.061875 6.0828125 5.061875 7.1875 5.125 C11.35236242 6.42073497 12.58818797 8.38228195 15 12 C14.8125 14.375 14.8125 14.375 14 16 C12.5 14.625 12.5 14.625 11 13 C11 12.34 11 11.68 11 11 C10.34 11 9.68 11 9 11 C9 10.34 9 9.68 9 9 C8.443125 8.79375 7.88625 8.5875 7.3125 8.375 C4.05356595 6.43725543 2.30433531 4.00843777 0 1 C0 0.67 0 0.34 0 0 Z " fill="#1047A8" transform="translate(319,422)"/>
<path d="M0 0 C0.33 0 0.66 0 1 0 C3.40331287 11.81794343 2.8657854 23.04668614 2 35 C1.67 35 1.34 35 1 35 C0.67 27.08 0.34 19.16 0 11 C-0.33 11 -0.66 11 -1 11 C-0.67 7.37 -0.34 3.74 0 0 Z " fill="#265166" transform="translate(415,117)"/>
<path d="M0 0 C1.7074998 1.28062485 3.37373596 2.61767557 5 4 C5 4.66 5 5.32 5 6 C5.66 6 6.32 6 7 6 C8.65625 7.609375 8.65625 7.609375 10.5 9.75 C11.1084375 10.44609375 11.716875 11.1421875 12.34375 11.859375 C13.87976963 13.84460792 14.9723966 15.71872045 16 18 C8.53818538 14.60826608 4.88772361 10.03836951 1 3 C0.67 2.01 0.34 1.02 0 0 Z " fill="#091F64" transform="translate(165,289)"/>
<path d="M0 0 C0.66 0 1.32 0 2 0 C0.62514235 6.41600237 -1.50213617 8.37374939 -7 12 C-7.33 12.99 -7.66 13.98 -8 15 C-9.32 15 -10.64 15 -12 15 C-12 14.34 -12 13.68 -12 13 C-11.34 13 -10.68 13 -10 13 C-9.74347656 12.41476562 -9.48695312 11.82953125 -9.22265625 11.2265625 C-7.89437838 8.80765392 -6.43475199 7.26801128 -4.4375 5.375 C-1.85984611 2.95478041 -1.85984611 2.95478041 0 0 Z " fill="#10559E" transform="translate(94,315)"/>
<path d="M0 0 C2 3 2 3 2 5 C2.66 5 3.32 5 4 5 C3.67 6.32 3.34 7.64 3 9 C3.66 8.34 4.32 7.68 5 7 C5.99 7.33 6.98 7.66 8 8 C7.34 8 6.68 8 6 8 C6 8.99 6 9.98 6 11 C3.75 11.25 3.75 11.25 1 11 C-1.3125 9.125 -1.3125 9.125 -3 7 C-3 6.34 -3 5.68 -3 5 C-2.34 5 -1.68 5 -1 5 C-1.33 3.68 -1.66 2.36 -2 1 C-1.34 0.67 -0.68 0.34 0 0 Z " fill="#051B97" transform="translate(310,257)"/>
<path d="M0 0 C0.33 0 0.66 0 1 0 C1 1.98 1 3.96 1 6 C0.34 6 -0.32 6 -1 6 C-1 6.99 -1 7.98 -1 9 C-1.66 9 -2.32 9 -3 9 C-3 11.31 -3 13.62 -3 16 C-4.32 16.33 -5.64 16.66 -7 17 C-7.33 16.01 -7.66 15.02 -8 14 C-7.34 14 -6.68 14 -6 14 C-5.67 11.36 -5.34 8.72 -5 6 C-3.68 5.67 -2.36 5.34 -1 5 C-0.67 3.35 -0.34 1.7 0 0 Z " fill="#0788F2" transform="translate(408,171)"/>
<path d="M0 0 C0.66 0.33 1.32 0.66 2 1 C1.195625 1.886875 0.39125 2.77375 -0.4375 3.6875 C-2.7039159 6.38287032 -3.68417366 8.42063478 -4 12 C-3.34 12 -2.68 12 -2 12 C-1.67 13.32 -1.34 14.64 -1 16 C-1.66 16 -2.32 16 -3 16 C-3 15.34 -3 14.68 -3 14 C-3.66 14 -4.32 14 -5 14 C-6.6875 12.25 -6.6875 12.25 -8 10 C-7.73400526 7.36133217 -7.21567602 6.22550299 -5.37109375 4.296875 C-4.73300781 3.78640625 -4.09492188 3.2759375 -3.4375 2.75 C-2.79683594 2.22921875 -2.15617188 1.7084375 -1.49609375 1.171875 C-1.00238281 0.78515625 -0.50867188 0.3984375 0 0 Z " fill="#0A1C78" transform="translate(165,236)"/>
<path d="M0 0 C3.48920278 3.1418264 5.54965358 6.42979807 7.75 10.5625 C8.36359375 11.69816406 8.9771875 12.83382812 9.609375 14.00390625 C11 17 11 17 11 20 C10.01 20 9.02 20 8 20 C7.38125 18.205625 7.38125 18.205625 6.75 16.375 C5.67911233 13.47850383 4.64369374 11.47602021 2.875 8.875 C0.87276271 5.80490282 0.34414138 3.61348451 0 0 Z " fill="#398AAD" transform="translate(398,78)"/>
<path d="M0 0 C9.9 0 19.8 0 30 0 C30 0.33 30 0.66 30 1 C21.09 1 12.18 1 3 1 C3 2.32 3 3.64 3 5 C3.99 5.33 4.98 5.66 6 6 C6.6875 8.0625 6.6875 8.0625 7 10 C6.01 9.34 5.02 8.68 4 8 C4 7.34 4 6.68 4 6 C3.34 6 2.68 6 2 6 C1.34 4.02 0.68 2.04 0 0 Z " fill="#051588" transform="translate(110,42)"/>
<path d="M0 0 C0.33 1.32 0.66 2.64 1 4 C0.34 4 -0.32 4 -1 4 C-1.268125 4.598125 -1.53625 5.19625 -1.8125 5.8125 C-3 8 -3 8 -4.5 9.4375 C-6.39903312 11.4156595 -7.09899031 13.43558782 -8 16 C-8.66 15.67 -9.32 15.34 -10 15 C-10.66 15 -11.32 15 -12 15 C-10.63055898 12.05043472 -9.12169591 9.47531189 -7 7 C-6.34 7 -5.68 7 -5 7 C-5 6.34 -5 5.68 -5 5 C-4.34 5 -3.68 5 -3 5 C-2.690625 4.360625 -2.38125 3.72125 -2.0625 3.0625 C-1 1 -1 1 0 0 Z " fill="#196F9F" transform="translate(64,349)"/>
<path d="M0 0 C2.475 0.495 2.475 0.495 5 1 C5.2475 1.969375 5.495 2.93875 5.75 3.9375 C6.1625 4.948125 6.575 5.95875 7 7 C8.98045559 7.66179847 8.98045559 7.66179847 11 8 C12.125 10 12.125 10 13 12 C13.66 12.33 14.32 12.66 15 13 C15 13.99 15 14.98 15 16 C14.34 16 13.68 16 13 16 C13 15.34 13 14.68 13 14 C12.34 14 11.68 14 11 14 C6.71126781 9.83802836 3.15879379 5.05407007 0 0 Z " fill="#0E2D7D" transform="translate(255,352)"/>
<path d="M0 0 C3.3 0 6.6 0 10 0 C9.34 2.31 8.68 4.62 8 7 C8.66 7.66 9.32 8.32 10 9 C9.01 9.33 8.02 9.66 7 10 C6.87625 9.071875 6.87625 9.071875 6.75 8.125 C5.76174558 5.32494581 4.59640015 5.25886068 2 4 C1.34 2.68 0.68 1.36 0 0 Z " fill="#074DD1" transform="translate(317,417)"/>
<path d="M0 0 C2.03144641 0.93446535 4.03533587 1.93224776 6 3 C5.67 4.32 5.34 5.64 5 7 C6.98 7 8.96 7 11 7 C9.515 9.475 9.515 9.475 8 12 C7.34 11.67 6.68 11.34 6 11 C6 10.34 6 9.68 6 9 C5.38125 8.9175 4.7625 8.835 4.125 8.75 C2 8 2 8 0.875 6.125 C0.441875 5.073125 0.441875 5.073125 0 4 C-0.66 3.01 -1.32 2.02 -2 1 C-1.34 0.67 -0.68 0.34 0 0 Z " fill="#0646C7" transform="translate(276,369)"/>
<path d="M0 0 C0.66 0.33 1.32 0.66 2 1 C1.67 1.66 1.34 2.32 1 3 C0.34 3 -0.32 3 -1 3 C-0.79375 4.11375 -0.5875 5.2275 -0.375 6.375 C-0.25125 7.57125 -0.1275 8.7675 0 10 C-0.66 10.66 -1.32 11.32 -2 12 C-2.66 11.67 -3.32 11.34 -4 11 C-5.32 11 -6.64 11 -8 11 C-6.4722133 7.56247993 -4.49818944 4.81046312 -2 2 C-1.34 2 -0.68 2 0 2 C0 1.34 0 0.68 0 0 Z " fill="#0D5BBB" transform="translate(104,304)"/>
<path d="M0 0 C2.99549387 0.32094577 3.95752249 0.9549481 6.0625 3.1875 C8.04114982 6.05973361 9.66771572 8.77446965 11 12 C10.67 12.99 10.34 13.98 10 15 C9.34 14.67 8.68 14.34 8 14 C7.26924352 11.6859378 6.59861742 9.35171131 6 7 C4.5459375 6.814375 4.5459375 6.814375 3.0625 6.625 C2.051875 6.41875 1.04125 6.2125 0 6 C-1.24546405 3.50907189 -0.7767578 2.58919267 0 0 Z " fill="#063DB8" transform="translate(161,288)"/>
<path d="M0 0 C0.99 0 1.98 0 3 0 C3.433125 0.928125 3.86625 1.85625 4.3125 2.8125 C5.76105525 5.92647854 5.76105525 5.92647854 7.6875 7.6875 C8.120625 8.120625 8.55375 8.55375 9 9 C9 9.99 9 10.98 9 12 C5.58540955 11.74706737 4.75204681 10.74051411 2.3125 8.1875 C-0.78372352 3.91973244 -0.78372352 3.91973244 -1 1 C-0.67 0.67 -0.34 0.34 0 0 Z " fill="#061372" transform="translate(283,234)"/>
<path d="M0 0 C1.32 0.33 2.64 0.66 4 1 C3.01 2.485 3.01 2.485 2 4 C1.34 4 0.68 4 0 4 C-0.77321882 6.98241547 -1.41196203 9.97580475 -2 13 C-2.99 13 -3.98 13 -5 13 C-6.67099977 13.31088368 -8.33871537 13.64080332 -10 14 C-8.86280581 10.58841744 -7.95657056 9.88145399 -5 8 C-4.34 8 -3.68 8 -3 8 C-2.87625 7.4225 -2.7525 6.845 -2.625 6.25 C-1.99351176 3.97664233 -1.11141809 2.0746471 0 0 Z " fill="#0378F4" transform="translate(96,315)"/>
<path d="M0 0 C-1.07826365 1.27513763 -2.16285519 2.54492569 -3.25 3.8125 C-3.85328125 4.52019531 -4.4565625 5.22789062 -5.078125 5.95703125 C-6.92370398 7.91889671 -8.79945332 9.45669625 -11 11 C-10.32359407 6.77246293 -8.2825056 3.55802344 -6 0 C-3 -1 -3 -1 0 0 Z " fill="#05126E" transform="translate(185,218)"/>
<path d="M0 0 C0.33 0.66 0.66 1.32 1 2 C1.66 2 2.32 2 3 2 C3 2.66 3 3.32 3 4 C3.66 4 4.32 4 5 4 C5 4.66 5 5.32 5 6 C5.66 6 6.32 6 7 6 C7 6.66 7 7.32 7 8 C7.66 8 8.32 8 9 8 C11 11 11 11 11 14 C9.68 13.67 8.36 13.34 7 13 C7.33 12.01 7.66 11.02 8 10 C6.68 9.67 5.36 9.34 4 9 C4 8.34 4 7.68 4 7 C3.34 7 2.68 7 2 7 C0 4 0 4 0 0 Z " fill="#0B2E84" transform="translate(223,352)"/>
<path d="M0 0 C0.98120464 3.05263664 0.98120464 4.94736336 0 8 C-0.99 8 -1.98 8 -3 8 C-3.33 8.99 -3.66 9.98 -4 11 C-5.65 11 -7.3 11 -9 11 C-8.06558465 9.72689688 -7.12732889 8.456612 -6.1875 7.1875 C-5.66542969 6.47980469 -5.14335938 5.77210938 -4.60546875 5.04296875 C-3.16871123 3.21468607 -1.68184237 1.60103312 0 0 Z " fill="#0D4DB0" transform="translate(115,292)"/>
<path d="M0 0 C4.56048012 3.61251516 8.01665146 6.98797445 11 12 C8.33333333 11.33333333 5.66666667 10.66666667 3 10 C2.814375 9.071875 2.814375 9.071875 2.625 8.125 C2.12802644 5.80879168 2.12802644 5.80879168 0 4 C0 2.68 0 1.36 0 0 Z " fill="#051761" transform="translate(256,291)"/>
<path d="M0 0 C2 1 2 1 4 6 C-4.91 6 -13.82 6 -23 6 C-23 5.67 -23 5.34 -23 5 C-12.605 4.505 -12.605 4.505 -2 4 C-1.34 2.68 -0.68 1.36 0 0 Z " fill="#0D3AA7" transform="translate(404,453)"/>
<path d="M0 0 C2 3 2 3 2 5 C1.01 4.67 0.02 4.34 -1 4 C-0.65555119 6.47266765 -0.65555119 6.47266765 0 9 C0.66 9.33 1.32 9.66 2 10 C-0.64 10 -3.28 10 -6 10 C-4.79157144 5.56909529 -3.48331435 3.01887244 0 0 Z " fill="#0BABFB" transform="translate(62,355)"/>
<path d="M0 0 C1.9375 0.375 1.9375 0.375 4 1 C4.33 1.66 4.66 2.32 5 3 C5.99 3 6.98 3 8 3 C9.75 5.25 9.75 5.25 11 8 C10.578125 10.171875 10.578125 10.171875 10 12 C8.32737283 10.38113585 6.66204463 8.7547271 5 7.125 C4.071875 6.22007812 3.14375 5.31515625 2.1875 4.3828125 C0 2 0 2 0 0 Z " fill="#1040A4" transform="translate(278,377)"/>
<path d="M0 0 C0.99 0.33 1.98 0.66 3 1 C1.515 3.475 1.515 3.475 0 6 C0.99 6.33 1.98 6.66 3 7 C2.67 7.99 2.34 8.98 2 10 C-1.0625 11.1875 -1.0625 11.1875 -4 12 C-3.46274105 8.62294375 -2.88935377 5.303314 -2 2 C-1.34 2 -0.68 2 0 2 C0 1.34 0 0.68 0 0 Z " fill="#0159E1" transform="translate(118,290)"/>
<path d="M0 0 C2.4375 0.8125 2.4375 0.8125 5 2 C5.33 2.99 5.66 3.98 6 5 C7.32 5 8.64 5 10 5 C10 6.65 10 8.3 10 10 C10.66 10 11.32 10 12 10 C12.33 11.32 12.66 12.64 13 14 C12.34 14 11.68 14 11 14 C9.43802886 12.28358022 7.94860958 10.50061361 6.5 8.6875 C5.7059375 7.70136719 4.911875 6.71523438 4.09375 5.69921875 C2 3 2 3 0 0 Z " fill="#103889" transform="translate(298,399)"/>
<path d="M0 0 C0.99 0.33 1.98 0.66 3 1 C2.67 2.32 2.34 3.64 2 5 C-5.26 5 -12.52 5 -20 5 C-20 4.67 -20 4.34 -20 4 C-18.80761719 3.96261719 -17.61523438 3.92523438 -16.38671875 3.88671875 C-14.820281 3.82105968 -13.25387616 3.75461232 -11.6875 3.6875 C-10.90181641 3.66494141 -10.11613281 3.64238281 -9.30664062 3.61914062 C-8.54931641 3.58369141 -7.79199219 3.54824219 -7.01171875 3.51171875 C-6.31522217 3.48553467 -5.61872559 3.45935059 -4.90112305 3.43237305 C-2.50649641 2.88776232 -1.56727453 1.84170838 0 0 Z " fill="#0A47C1" transform="translate(228,361)"/>
<path d="M0 0 C1.7074998 1.28062485 3.37373596 2.61767557 5 4 C5 4.66 5 5.32 5 6 C5.66 6 6.32 6 7 6 C7 6.66 7 7.32 7 8 C7.66 8 8.32 8 9 8 C10.38938077 9.96147874 11.7260411 11.96166576 13 14 C11.35 13.67 9.7 13.34 8 13 C8 12.01 8 11.02 8 10 C7.34 10 6.68 10 6 10 C6 9.34 6 8.68 6 8 C5.38125 7.79375 4.7625 7.5875 4.125 7.375 C1.15346355 5.45224112 0.86975341 3.33405473 0 0 Z " fill="#082067" transform="translate(152,275)"/>
<path d="M0 0 C0.66 0 1.32 0 2 0 C2 0.66 2 1.32 2 2 C2.70125 2.04125 3.4025 2.0825 4.125 2.125 C8.15405152 3.35123307 10.49159415 5.66078457 13 9 C13.875 11.875 13.875 11.875 14 14 C13.29875 13.278125 12.5975 12.55625 11.875 11.8125 C8.20700034 8.14450034 4.32286852 4.88191235 0 2 C0 1.34 0 0.68 0 0 Z " fill="#04146A" transform="translate(203,237)"/>
<path d="M0 0 C1.11979242 1.11979242 2.23889873 2.24027567 3.35546875 3.36328125 C4.5980685 4.59997791 5.85283833 5.82446294 7.11328125 7.04296875 C8.20189453 8.10451172 8.20189453 8.10451172 9.3125 9.1875 C10.00988281 9.86167969 10.70726562 10.53585937 11.42578125 11.23046875 C13 13 13 13 13 15 C13.66 15 14.32 15 15 15 C14.67 15.66 14.34 16.32 14 17 C13.34 17 12.68 17 12 17 C11.566875 16.2575 11.13375 15.515 10.6875 14.75 C8.83393179 11.72937032 6.76386905 10.16627574 4 8 C4 7.34 4 6.68 4 6 C3.01 5.67 2.02 5.34 1 5 C0.67 3.35 0.34 1.7 0 0 Z " fill="#06175A" transform="translate(316,356)"/>
<path d="M0 0 C2.74148672 0.37047118 4.58593199 0.68587944 6.8125 2.375 C8 4 8 4 8 7 C8.99 7.33 9.98 7.66 11 8 C11.33 9.65 11.66 11.3 12 13 C11.34 12.67 10.68 12.34 10 12 C10 11.34 10 10.68 10 10 C9.34 10 8.68 10 8 10 C6.30859375 8.3203125 6.30859375 8.3203125 4.4375 6.125 C3.50744141 5.04605469 3.50744141 5.04605469 2.55859375 3.9453125 C1 2 1 2 0 0 Z " fill="#0E2672" transform="translate(207,300)"/>
<path d="M0 0 C0.99 0.33 1.98 0.66 3 1 C3.33 2.65 3.66 4.3 4 6 C4.66 6 5.32 6 6 6 C6.33 8.97 6.66 11.94 7 15 C3.67483117 12.10388521 2.66421365 10.31738876 2 6 C1.34 5.01 0.68 4.02 0 3 C0 2.01 0 1.02 0 0 Z " fill="#3CB6EE" transform="translate(408,107)"/>
<path d="M0 0 C0.66 0.33 1.32 0.66 2 1 C1.43174347 6.54050113 -0.62886517 11.03715966 -3 16 C-3.33 16 -3.66 16 -4 16 C-4 13.69 -4 11.38 -4 9 C-3.34 9 -2.68 9 -2 9 C-2 8.01 -2 7.02 -2 6 C-1.34 6 -0.68 6 0 6 C0 4.02 0 2.04 0 0 Z " fill="#125693" transform="translate(409,171)"/>
<path d="M0 0 C1.98 0 3.96 0 6 0 C5.01 0.495 5.01 0.495 4 1 C4 1.66 4 2.32 4 3 C4.66 3.33 5.32 3.66 6 4 C6.33 4.99 6.66 5.98 7 7 C5.68 7.33 4.36 7.66 3 8 C2.67 7.01 2.34 6.02 2 5 C2.33 4.34 2.66 3.68 3 3 C1.68 3 0.36 3 -1 3 C-0.67 2.01 -0.34 1.02 0 0 Z " fill="#044CD0" transform="translate(305,401)"/>
<path d="M0 0 C0.99 0.33 1.98 0.66 3 1 C1.515 2.485 1.515 2.485 0 4 C0.33 4.66 0.66 5.32 1 6 C-0.98 6.99 -2.96 7.98 -5 9 C-5 7.35 -5 5.7 -5 4 C-3.35 3.34 -1.7 2.68 0 2 C0 1.34 0 0.68 0 0 Z M-7 9 C-6.01 9.495 -6.01 9.495 -5 10 C-5.99 10.495 -5.99 10.495 -7 11 C-7 10.34 -7 9.68 -7 9 Z " fill="#1092E5" transform="translate(70,344)"/>
<path d="M0 0 C5.40049736 0.31767632 7.52337065 3.19996327 11 7 C10.67 7.66 10.34 8.32 10 9 C9.278125 8.175 8.55625 7.35 7.8125 6.5 C5.29346832 3.78142756 5.29346832 3.78142756 2.375 3.6875 C1.59125 3.790625 0.8075 3.89375 0 4 C-0.99 4 -1.98 4 -3 4 C-2.01 2.68 -1.02 1.36 0 0 Z " fill="#081F5A" transform="translate(139,264)"/>
<path d="M0 0 C3.3125 0.5625 3.3125 0.5625 7 2 C8.5368579 4.29468783 9.1584126 6.32672237 10 9 C9.01 9 8.02 9 7 9 C6.34 7.68 5.68 6.36 5 5 C4.34 5 3.68 5 3 5 C1.375 2.5 1.375 2.5 0 0 Z " fill="#0E3996" transform="translate(289,389)"/>
<path d="M0 0 C7.48291572 6.15034169 7.48291572 6.15034169 10 10 C8.35 9.67 6.7 9.34 5 9 C5 8.34 5 7.68 5 7 C4.01 6.67 3.02 6.34 2 6 C0 3 0 3 0 0 Z " fill="#0B2B79" transform="translate(206,334)"/>
<path d="M0 0 C2.3125 0.1875 2.3125 0.1875 5 1 C8 5.03448276 8 5.03448276 8 8 C8.66 8 9.32 8 10 8 C9.67 8.99 9.34 9.98 9 11 C7.49703315 9.35687553 5.99769719 7.71042916 4.5 6.0625 C3.6646875 5.14597656 2.829375 4.22945313 1.96875 3.28515625 C0 1 0 1 0 0 Z " fill="#0A2168" transform="translate(171,260)"/>
<path d="M0 0 C3.21043882 1.38188453 5.04936365 2.92421903 7.25 5.625 C8.03117187 6.57246094 8.03117187 6.57246094 8.828125 7.5390625 C9.40820312 8.26222656 9.40820312 8.26222656 10 9 C7.36 8.34 4.72 7.68 2 7 C1.34 4.69 0.68 2.38 0 0 Z " fill="#4DC1ED" transform="translate(383,64)"/>
<path d="M0 0 C0.66 0 1.32 0 2 0 C2 0.66 2 1.32 2 2 C2.66 2 3.32 2 4 2 C4 2.66 4 3.32 4 4 C4.66 4 5.32 4 6 4 C6 4.66 6 5.32 6 6 C6.66 6 7.32 6 8 6 C8 6.66 8 7.32 8 8 C8.66 8 9.32 8 10 8 C10 8.66 10 9.32 10 10 C9.01 10 8.02 10 7 10 C7 9.34 7 8.68 7 8 C5.68 7.34 4.36 6.68 3 6 C3 5.34 3 4.68 3 4 C2.34 4 1.68 4 1 4 C0.67 2.68 0.34 1.36 0 0 Z " fill="#081D66" transform="translate(347,391)"/>
<path d="M0 0 C4.49092377 2.37754788 7.52235713 5.3606063 11 9 C10.67 9.66 10.34 10.32 10 11 C6.28452679 8.63560796 2.84574432 6.39300284 0 3 C0 2.01 0 1.02 0 0 Z " fill="#071F6F" transform="translate(329,372)"/>
<path d="M0 0 C2.475 0.99 2.475 0.99 5 2 C5 3.32 5 4.64 5 6 C3.125 6.625 3.125 6.625 1 7 C0.34 6.34 -0.32 5.68 -1 5 C-0.625 2.375 -0.625 2.375 0 0 Z " fill="#073EB6" transform="translate(177,305)"/>
<path d="M0 0 C2.475 0.99 2.475 0.99 5 2 C5 2.99 5 3.98 5 5 C6.32 5.33 7.64 5.66 9 6 C9 6.66 9 7.32 9 8 C9.63474075 9.34882408 10.29848848 10.6846659 11 12 C9.84775972 11.07038578 8.70340824 10.1309875 7.5625 9.1875 C6.92441406 8.66542969 6.28632813 8.14335937 5.62890625 7.60546875 C4 6 4 6 3 3 C2.34 3 1.68 3 1 3 C0.67 2.01 0.34 1.02 0 0 Z " fill="#050B52" transform="translate(204,150)"/>
<path d="M0 0 C0.33 0.66 0.66 1.32 1 2 C-0.093125 2.309375 -1.18625 2.61875 -2.3125 2.9375 C-4.55407994 3.58337897 -6.7869351 4.2623117 -9 5 C-9 3.68 -9 2.36 -9 1 C-5.68042385 -1.0901035 -3.73206842 -1.21040057 0 0 Z " fill="#39BDFB" transform="translate(377,59)"/>
<path d="M0 0 C0.33 0.66 0.66 1.32 1 2 C0.00390625 4.1640625 0.00390625 4.1640625 -1.4375 6.625 C-1.91058594 7.44226563 -2.38367188 8.25953125 -2.87109375 9.1015625 C-3.24363281 9.72804687 -3.61617188 10.35453125 -4 11 C-4.66 10.67 -5.32 10.34 -6 10 C-5.57742724 8.5164999 -5.13643678 7.03823576 -4.6875 5.5625 C-4.32205078 4.32693359 -4.32205078 4.32693359 -3.94921875 3.06640625 C-3.63597656 2.38449219 -3.32273437 1.70257813 -3 1 C-2.01 0.67 -1.02 0.34 0 0 Z " fill="#115BA2" transform="translate(404,187)"/>
<path d="M0 0 C1.13199353 0.9080162 2.25532363 1.82683826 3.375 2.75 C4.00148438 3.26046875 4.62796875 3.7709375 5.2734375 4.296875 C7.08312318 6.08199481 8.00117455 7.67949644 9 10 C7.68 9.67 6.36 9.34 5 9 C5 8.01 5 7.02 5 6 C2.525 5.01 2.525 5.01 0 4 C0 2.68 0 1.36 0 0 Z " fill="#05226F" transform="translate(376,422)"/>
<path d="M0 0 C0.66 0.33 1.32 0.66 2 1 C2 1.66 2 2.32 2 3 C1.360625 3.28875 0.72125 3.5775 0.0625 3.875 C-2.15206079 4.82823451 -2.15206079 4.82823451 -3 7 C-3.99 7 -4.98 7 -6 7 C-6 7.66 -6 8.32 -6 9 C-6.99 9.33 -7.98 9.66 -9 10 C-9 9.34 -9 8.68 -9 8 C-8.34 8 -7.68 8 -7 8 C-6.773125 7.4225 -6.54625 6.845 -6.3125 6.25 C-4.66961977 3.4336339 -2.60466773 1.91922886 0 0 Z " fill="#1366A9" transform="translate(76,337)"/>
<path d="M0 0 C2.99324263 1.0975223 3.84610901 1.67682892 5.25 4.625 C5.4975 5.40875 5.745 6.1925 6 7 C6.66 7 7.32 7 8 7 C7.67 7.66 7.34 8.32 7 9 C5.35 9 3.7 9 2 9 C2.04125 8.071875 2.0825 7.14375 2.125 6.1875 C2.27136339 2.84190281 2.27136339 2.84190281 0 0 Z " fill="#2F85A3" transform="translate(390,69)"/>
<path d="M0 0 C1.65 0.33 3.3 0.66 5 1 C5 2.65 5 4.3 5 6 C4.01 6.495 4.01 6.495 3 7 C3 6.34 3 5.68 3 5 C1.68 4.67 0.36 4.34 -1 4 C-0.67 2.68 -0.34 1.36 0 0 Z " fill="#064BCA" transform="translate(290,385)"/>
<path d="M0 0 C2.475 0.99 2.475 0.99 5 2 C5 2.66 5 3.32 5 4 C5.99 4.33 6.98 4.66 8 5 C7.67 6.32 7.34 7.64 7 9 C5.83037314 7.69013727 4.66437056 6.3770374 3.5 5.0625 C2.8503125 4.33160156 2.200625 3.60070312 1.53125 2.84765625 C0 1 0 1 0 0 Z " fill="#050D56" transform="translate(252,203)"/>
<path d="M0 0 C2.3125 0.125 2.3125 0.125 5 1 C8 5.86206897 8 5.86206897 8 9 C7.34 9 6.68 9 6 9 C4.64721885 7.01310269 3.31431695 5.01254782 2 3 C1.34 2.67 0.68 2.34 0 2 C0 1.34 0 0.68 0 0 Z " fill="#061381" transform="translate(209,153)"/>
<path d="M0 0 C2.475 0.495 2.475 0.495 5 1 C5.33 2.65 5.66 4.3 6 6 C6.99 6.33 7.98 6.66 9 7 C8.34 7.66 7.68 8.32 7 9 C5.5 7.625 5.5 7.625 4 6 C4 5.34 4 4.68 4 4 C3.34 4 2.68 4 2 4 C2 3.34 2 2.68 2 2 C1.34 2 0.68 2 0 2 C0 1.34 0 0.68 0 0 Z " fill="#103384" transform="translate(311,413)"/>
<path d="M0 0 C2.53910197 0.38520564 3.72751123 0.70097943 5.484375 2.62890625 C5.90203125 3.26699219 6.3196875 3.90507812 6.75 4.5625 C7.17796875 5.20316406 7.6059375 5.84382813 8.046875 6.50390625 C8.36140625 6.99761719 8.6759375 7.49132812 9 8 C6 8 6 8 3.8125 6.125 C2 4 2 4 2 2 C1.34 2 0.68 2 0 2 C0 1.34 0 0.68 0 0 Z " fill="#113283" transform="translate(270,368)"/>
<path d="M0 0 C0.66 0.33 1.32 0.66 2 1 C1.34 2.98 0.68 4.96 0 7 C-1.65 7 -3.3 7 -5 7 C-3.70700306 4.11562221 -2.34058637 2.12780579 0 0 Z " fill="#0149C8" transform="translate(361,230)"/>
<path d="M0 0 C1.33333333 0.66666667 2.66666667 1.33333333 4 2 C4.70125 2.226875 5.4025 2.45375 6.125 2.6875 C9.0943655 4.76605585 9.2429305 7.59318726 10 11 C6.40365256 7.50640535 3.16548033 3.88901869 0 0 Z " fill="#040A52" transform="translate(227,176)"/>
<path d="M0 0 C3 1 3 1 4.25 3.375 C5 6 5 6 4 9 C3.34 8.67 2.68 8.34 2 8 C2 7.01 2 6.02 2 5 C1.34 5 0.68 5 0 5 C0 4.34 0 3.68 0 3 C-0.66 2.67 -1.32 2.34 -2 2 C-1.34 2 -0.68 2 0 2 C0 1.34 0 0.68 0 0 Z " fill="#0745BC" transform="translate(220,351)"/>
<path d="M0 0 C1.15224028 0.92961422 2.29659176 1.8690125 3.4375 2.8125 C4.07558594 3.33457031 4.71367187 3.85664063 5.37109375 4.39453125 C7 6 7 6 8 9 C8.66 9 9.32 9 10 9 C10 9.66 10 10.32 10 11 C8.1875 10.8125 8.1875 10.8125 6 10 C4.4375 7.625 4.4375 7.625 3 5 C2.443125 4.443125 1.88625 3.88625 1.3125 3.3125 C0.879375 2.879375 0.44625 2.44625 0 2 C0 1.34 0 0.68 0 0 Z " fill="#03124A" transform="translate(280,317)"/>
<path d="M0 0 C0.99 0 1.98 0 3 0 C3 0.66 3 1.32 3 2 C3.99 2.33 4.98 2.66 6 3 C6 3.66 6 4.32 6 5 C6.66 5 7.32 5 8 5 C8.33 6.32 8.66 7.64 9 9 C8.34 9 7.68 9 7 9 C7 8.34 7 7.68 7 7 C6.34 7 5.68 7 5 7 C5 6.34 5 5.68 5 5 C4.34 5 3.68 5 3 5 C1.375 2.5 1.375 2.5 0 0 Z " fill="#0E2F84" transform="translate(222,316)"/>
<path d="M0 0 C0.99 0.495 0.99 0.495 2 1 C2 1.66 2 2.32 2 3 C3.1446875 3.1546875 3.1446875 3.1546875 4.3125 3.3125 C7.17059424 4.04364039 8.15742885 4.76951913 10 7 C9.67 7.66 9.34 8.32 9 9 C7.67870176 8.265611 6.36816829 7.51183106 5.0625 6.75 C4.33160156 6.33234375 3.60070312 5.9146875 2.84765625 5.484375 C0.68142682 3.74406383 0.36405249 2.70438996 0 0 Z " fill="#092B88" transform="translate(171,298)"/>
<path d="M0 0 C1.15941038 3.47823115 0.70820884 5.45895578 0 9 C-0.99 9 -1.98 9 -3 9 C-3.66 7.68 -4.32 6.36 -5 5 C-4.01 4.67 -3.02 4.34 -2 4 C-0.79117904 1.99983534 -0.79117904 1.99983534 0 0 Z " fill="#0769E6" transform="translate(389,202)"/>
<path d="M0 0 C1.32 0.33 2.64 0.66 4 1 C4.33 2.32 4.66 3.64 5 5 C5.99 5 6.98 5 8 5 C8.33 6.32 8.66 7.64 9 9 C4.71930097 7.41455592 2.70478088 4.5312417 0 1 C0 0.67 0 0.34 0 0 Z " fill="#0F2E72" transform="translate(319,422)"/>
<path d="M0 0 C0.99 0.33 1.98 0.66 3 1 C3.90837763 3.47739354 4 5.33579484 4 8 C-0.875 4.375 -0.875 4.375 -2 1 C-1.34 0.67 -0.68 0.34 0 0 Z " fill="#084BCF" transform="translate(299,394)"/>
<path d="M0 0 C0.66 0 1.32 0 2 0 C1.62669176 2.72574271 1.20805399 3.80822085 -0.84765625 5.703125 C-1.94400391 6.46882813 -1.94400391 6.46882813 -3.0625 7.25 C-3.79597656 7.77078125 -4.52945313 8.2915625 -5.28515625 8.828125 C-5.85105469 9.21484375 -6.41695313 9.6015625 -7 10 C-5.57268007 7.07153324 -4.13071088 4.48582937 -2 2 C-1.34 2 -0.68 2 0 2 C0 1.34 0 0.68 0 0 Z " fill="#071D57" transform="translate(132,272)"/>
<path d="M0 0 C3.81538462 2.46153846 3.81538462 2.46153846 4.75 5.1875 C4.87375 6.0846875 4.87375 6.0846875 5 7 C4.34 7 3.68 7 3 7 C2.67 6.34 2.34 5.68 2 5 C-0.32156597 4.59270772 -2.6568787 4.25561323 -5 4 C-3.35 2.68 -1.7 1.36 0 0 Z " fill="#0638B5" transform="translate(143,267)"/>
<path d="M0 0 C1.3921875 0.3403125 1.3921875 0.3403125 2.8125 0.6875 C-2.33035714 5.11607143 -2.33035714 5.11607143 -6.1875 5.6875 C-6.1875 2.6875 -6.1875 2.6875 -5.0625 0.9375 C-3.1875 -0.3125 -3.1875 -0.3125 0 0 Z " fill="#071668" transform="translate(322.1875,262.3125)"/>
<path d="M0 0 C0.99 0.33 1.98 0.66 3 1 C1.60667426 4.36720387 0.0210714 5.9859524 -3 8 C-3 6.35 -3 4.7 -3 3 C-2.01 3 -1.02 3 0 3 C0 2.01 0 1.02 0 0 Z " fill="#0D479F" transform="translate(380,216)"/>
<path d="M0 0 C0.99 0 1.98 0 3 0 C3.33 0.99 3.66 1.98 4 3 C3.01 4.485 3.01 4.485 2 6 C1.34 6 0.68 6 0 6 C-0.33 6.66 -0.66 7.32 -1 8 C-1.125 2.25 -1.125 2.25 0 0 Z " fill="#0D56AF" transform="translate(390,203)"/>
<path d="M0 0 C2.94721162 2.74395564 5.19168608 5.38337216 7 9 C6.67 9.66 6.34 10.32 6 11 C1.9957657 7.50912907 0.37328935 5.35048061 0 0 Z " fill="#377D95" transform="translate(398,78)"/>
<path d="M0 0 C2.475 0.495 2.475 0.495 5 1 C5 1.66 5 2.32 5 3 C5.66 3 6.32 3 7 3 C7 3.66 7 4.32 7 5 C4.03 4.505 4.03 4.505 1 4 C0.67 2.68 0.34 1.36 0 0 Z " fill="#033DB7" transform="translate(153,282)"/>
<path d="M0 0 C3.44795223 1.53242321 6.2199038 3.44531701 9 6 C9.8125 8.25 9.8125 8.25 10 10 C8 8.625 8 8.625 6 7 C6 6.34 6 5.68 6 5 C5.38125 4.731875 4.7625 4.46375 4.125 4.1875 C2 3 2 3 0 0 Z " fill="#0B1E63" transform="translate(182,273)"/>
<path d="M0 0 C3 2 3 2 4 5 C4.66 5.33 5.32 5.66 6 6 C6 6.99 6 7.98 6 9 C5.34 9 4.68 9 4 9 C4 8.34 4 7.68 4 7 C3.34 7 2.68 7 2 7 C0 4 0 4 0 0 Z " fill="#0E328C" transform="translate(264,359)"/>
<path d="M0 0 C0.99 0.33 1.98 0.66 3 1 C3.6875 3.0625 3.6875 3.0625 4 5 C2.02 5.33 0.04 5.66 -2 6 C-2 5.01 -2 4.02 -2 3 C-1.34 3 -0.68 3 0 3 C0 2.01 0 1.02 0 0 Z " fill="#0332A0" transform="translate(313,355)"/>
<path d="M0 0 C1.32 0.33 2.64 0.66 4 1 C4 1.99 4 2.98 4 4 C5.32 4.66 6.64 5.32 8 6 C7.34 6.66 6.68 7.32 6 8 C4.62437146 6.71034824 3.29233607 5.37310707 2 4 C2 3.34 2 2.68 2 2 C1.34 2 0.68 2 0 2 C0 1.34 0 0.68 0 0 Z " fill="#0D2273" transform="translate(164,252)"/>
<path d="M0 0 C3.79588866 0.54226981 5.47211993 2.20127563 8 5 C7.67 5.99 7.34 6.98 7 8 C5.83035398 6.8572081 4.66435444 5.71068285 3.5 4.5625 C2.8503125 3.92441406 2.200625 3.28632813 1.53125 2.62890625 C0 1 0 1 0 0 Z " fill="#060E57" transform="translate(290,246)"/>
<path d="M0 0 C0.33 0 0.66 0 1 0 C1.33 4.29 1.66 8.58 2 13 C1.01 12.34 0.02 11.68 -1 11 C-0.67 7.37 -0.34 3.74 0 0 Z " fill="#185C7D" transform="translate(415,117)"/>
<path d="M0 0 C1.65 0 3.3 0 5 0 C5.66 1.65 6.32 3.3 7 5 C4.11424181 4.60196439 3.17810487 4.20990931 1.25 1.9375 C0.8375 1.298125 0.425 0.65875 0 0 Z " fill="#123F9E" transform="translate(339,444)"/>
<path d="M0 0 C0.33 0.66 0.66 1.32 1 2 C1.66 2 2.32 2 3 2 C3 2.66 3 3.32 3 4 C3.66 4 4.32 4 5 4 C5.66 5.32 6.32 6.64 7 8 C5.0625 7.6875 5.0625 7.6875 3 7 C2.67 6.01 2.34 5.02 2 4 C1.34 4 0.68 4 0 4 C0 2.68 0 1.36 0 0 Z " fill="#071E69" transform="translate(391,438)"/>
<path d="M0 0 C1.16945792 0.80847729 2.33550461 1.62189112 3.5 2.4375 C4.47453125 3.11619141 4.47453125 3.11619141 5.46875 3.80859375 C5.9740625 4.20175781 6.479375 4.59492188 7 5 C7 5.33 7 5.66 7 6 C5.02 6.33 3.04 6.66 1 7 C0 4 0 4 0 0 Z " fill="#08319C" transform="translate(369,416)"/>
<path d="M0 0 C0.33 0.66 0.66 1.32 1 2 C1.66 2 2.32 2 3 2 C3 2.66 3 3.32 3 4 C3.66 4 4.32 4 5 4 C5.66 5.32 6.32 6.64 7 8 C4.08482708 6.92598892 2.22189824 6.22189824 0 4 C0 2.68 0 1.36 0 0 Z " fill="#08195A" transform="translate(309,348)"/>
<path d="M0 0 C0.33 0.66 0.66 1.32 1 2 C1.66 2 2.32 2 3 2 C4.625 4.5 4.625 4.5 6 7 C1.125 6.125 1.125 6.125 0 5 C-0.04063832 3.33382885 -0.042721 1.66611905 0 0 Z " fill="#082A74" transform="translate(182,307)"/>
<path d="M0 0 C2.02054804 1.64169528 4.02043058 3.30911778 6 5 C6 5.33 6 5.66 6 6 C4.33388095 6.042721 2.66617115 6.04063832 1 6 C0 5 0 5 -0.0625 2.4375 C-0.041875 1.633125 -0.02125 0.82875 0 0 Z " fill="#071A6F" transform="translate(267,303)"/>
<path d="M0 0 C2.93200474 2.85276137 5.64315404 5.65079784 8 9 C4.68470727 8.01437243 3.25050621 7.34552581 1.1875 4.5 C0 2 0 2 0 0 Z " fill="#040D4A" transform="translate(216,247)"/>
<path d="M0 0 C-2.97 2.475 -2.97 2.475 -6 5 C-6.33 3.35 -6.66 1.7 -7 0 C-3.98968256 -0.93423645 -3.13349732 -1.04449911 0 0 Z " fill="#0B3B90" transform="translate(375,227)"/>
<path d="M0 0 C0.99 0 1.98 0 3 0 C3 0.99 3 1.98 3 3 C4.65 3 6.3 3 8 3 C8 3.66 8 4.32 8 5 C6.1875 5.625 6.1875 5.625 4 6 C1 4 1 4 0.3125 1.875 C0.209375 1.25625 0.10625 0.6375 0 0 Z " fill="#42BBEC" transform="translate(361,50)"/>
<path d="M0 0 C1.4800841 0.11362262 2.95910074 0.24122908 4.4375 0.375 C5.26121094 0.44460937 6.08492188 0.51421875 6.93359375 0.5859375 C7.95646484 0.79089844 7.95646484 0.79089844 9 1 C9.33 1.66 9.66 2.32 10 3 C9.01 3.33 8.02 3.66 7 4 C6.01 3.34 5.02 2.68 4 2 C3.67 2.66 3.34 3.32 3 4 C2.01 2.68 1.02 1.36 0 0 Z " fill="#2DAEF7" transform="translate(330,43)"/>
<path d="M0 0 C5.875 3.75 5.875 3.75 7 6 C4.33333333 5.33333333 1.66666667 4.66666667 -1 4 C-0.67 2.68 -0.34 1.36 0 0 Z " fill="#061D73" transform="translate(260,297)"/>
<path d="M0 0 C2.39763185 2.39763185 2.34280586 3.33273498 2.625 6.625 C2.69976562 7.44226563 2.77453125 8.25953125 2.8515625 9.1015625 C2.90054687 9.72804688 2.94953125 10.35453125 3 11 C2.67 9.68 2.34 8.36 2 7 C1.34 7 0.68 7 0 7 C-1.125 2.25 -1.125 2.25 0 0 Z " fill="#236077" transform="translate(412,106)"/>
<path d="M0 0 C1.32 0 2.64 0 4 0 C4 1.98 4 3.96 4 6 C3.01 5.67 2.02 5.34 1 5 C1 4.01 1 3.02 1 2 C0.34 1.67 -0.32 1.34 -1 1 C-0.67 0.67 -0.34 0.34 0 0 Z " fill="#0A55D5" transform="translate(347,448)"/>
<path d="M0 0 C0.99 0 1.98 0 3 0 C3.268125 0.598125 3.53625 1.19625 3.8125 1.8125 C4.98493467 3.97224808 6.19369282 5.35790256 8 7 C5 7 5 7 2.3125 4.625 C0 2 0 2 0 0 Z " fill="#0C296D" transform="translate(248,344)"/>
<path d="M0 0 C0.99 0 1.98 0 3 0 C5.1875 3 5.1875 3 7 6 C5.35 5.67 3.7 5.34 2 5 C2 4.01 2 3.02 2 2 C1.34 2 0.68 2 0 2 C0 1.34 0 0.68 0 0 Z " fill="#0B2674" transform="translate(158,283)"/>
<path d="M0 0 C2.475 0.495 2.475 0.495 5 1 C5.33 2.98 5.66 4.96 6 7 C1.125 2.25 1.125 2.25 0 0 Z " fill="#0B2264" transform="translate(192,283)"/>
<path d="M0 0 C0.45375 0.495 0.9075 0.99 1.375 1.5 C2.87635519 3.22609337 2.87635519 3.22609337 5 3 C5 4.32 5 5.64 5 7 C3.125 6.8125 3.125 6.8125 1 6 C-0.25 3.4375 -0.25 3.4375 -1 1 C-0.67 0.67 -0.34 0.34 0 0 Z " fill="#0834A7" transform="translate(191,277)"/>
<path d="M0 0 C-3.96 1.98 -3.96 1.98 -8 4 C-8 3.01 -8 2.02 -8 1 C-4.59449725 -1.06762667 -4.18836538 -1.04709135 0 0 Z " fill="#072F9A" transform="translate(143,268)"/>
<path d="M0 0 C0.99 0.495 0.99 0.495 2 1 C1.01 1.495 1.01 1.495 0 2 C0 1.34 0 0.68 0 0 Z M-4 4 C-3.34 4.33 -2.68 4.66 -2 5 C-4.97 7.475 -4.97 7.475 -8 10 C-7.6875 8.125 -7.6875 8.125 -7 6 C-6.01 5.34 -5.02 4.68 -4 4 Z " fill="#03168A" transform="translate(182,219)"/>
<path d="M0 0 C1.32 0.33 2.64 0.66 4 1 C4.33 2.98 4.66 4.96 5 7 C2.5 5.1875 2.5 5.1875 0 3 C0 2.01 0 1.02 0 0 Z " fill="#060D50" transform="translate(107,41)"/>
<path d="M0 0 C1.875 0.3125 1.875 0.3125 4 1 C4.66 1.99 5.32 2.98 6 4 C5.67 4.99 5.34 5.98 5 7 C3.29115995 5.37660195 1.62553283 3.70680947 0 2 C0 1.34 0 0.68 0 0 Z " fill="#0E2D7A" transform="translate(278,377)"/>
<path d="M0 0 C0.33 0.66 0.66 1.32 1 2 C0.3125 4.0625 0.3125 4.0625 -1 6 C-3.125 6.75 -3.125 6.75 -5 7 C-3.70700306 4.11562221 -2.34058637 2.12780579 0 0 Z " fill="#0D2E73" transform="translate(115,292)"/>
<path d="M0 0 C0.99 0.33 1.98 0.66 3 1 C1.6875 3.5 1.6875 3.5 0 6 C-0.99 6 -1.98 6 -3 6 C-2.67 4.68 -2.34 3.36 -2 2 C-1.34 2 -0.68 2 0 2 C0 1.34 0 0.68 0 0 Z " fill="#0B54D6" transform="translate(118,290)"/>
<path d="M0 0 C1.0625 1.8125 1.0625 1.8125 2 4 C1.67 4.99 1.34 5.98 1 7 C-0.32 5.35 -1.64 3.7 -3 2 C-2.01 1.34 -1.02 0.68 0 0 Z " fill="#0345C8" transform="translate(133,277)"/>
<path d="M0 0 C0.66 0.33 1.32 0.66 2 1 C2 2.32 2 3.64 2 5 C0.35 4.67 -1.3 4.34 -3 4 C-2.01 2.68 -1.02 1.36 0 0 Z " fill="#083BB3" transform="translate(353,239)"/>
<path d="M0 0 C0.66 0 1.32 0 2 0 C2 0.66 2 1.32 2 2 C3.32 1.67 4.64 1.34 6 1 C6 2.98 6 4.96 6 7 C1.125 3.375 1.125 3.375 0 0 Z " fill="#030A51" transform="translate(277,231)"/>
<path d="M0 0 C0.33 0 0.66 0 1 0 C1.125 3.375 1.125 3.375 1 7 C0.34 7.66 -0.32 8.32 -1 9 C-1 8.34 -1 7.68 -1 7 C-1.66 6.67 -2.32 6.34 -3 6 C-2.01 4.02 -1.02 2.04 0 0 Z " fill="#0A6FE3" transform="translate(394,196)"/>
<path d="M0 0 C0.66 0 1.32 0 2 0 C2.93065133 2.60582371 3.14917407 3.64198224 2.0625 6.25 C1.5365625 7.11625 1.5365625 7.11625 1 8 C0.34 7.67 -0.32 7.34 -1 7 C-0.67 4.69 -0.34 2.38 0 0 Z " fill="#0B4F97" transform="translate(395,196)"/>
<path d="M0 0 C1.98 0.99 1.98 0.99 4 2 C4 2.66 4 3.32 4 4 C4.66 4 5.32 4 6 4 C6 4.66 6 5.32 6 6 C4.02 5.34 2.04 4.68 0 4 C0 2.68 0 1.36 0 0 Z " fill="#081277" transform="translate(244,192)"/>
<path d="M0 0 C0.33 0.66 0.66 1.32 1 2 C1.99 2.33 2.98 2.66 4 3 C4 3.99 4 4.98 4 6 C2.68 5.67 1.36 5.34 0 5 C-0.5625 3.0625 -0.5625 3.0625 -1 1 C-0.67 0.67 -0.34 0.34 0 0 Z " fill="#05127E" transform="translate(179,118)"/>
</svg>
